<svg xmlns="http://www.w3.org/2000/svg" xmlns:xlink="http://www.w3.org/1999/xlink" width="1821" zoomAndPan="magnify" viewBox="0 0 1365.75 1377.749959" height="1837" preserveAspectRatio="xMidYMid meet" version="1.0"><defs><g/><clipPath id="2fab844705"><path d="M 136.550781 142.550781 L 1228.949219 142.550781 L 1228.949219 752.757812 L 136.550781 752.757812 Z M 136.550781 142.550781 " clip-rule="nonzero"/></clipPath></defs><g fill="#ffffff" fill-opacity="1"><g transform="translate(211.214575, 982.23124)"><g><path d="M 141.890625 -156.109375 C 141.890625 -146.304688 138.507812 -135.84375 131.75 -124.71875 C 125 -113.601562 116.28125 -103.140625 105.59375 -93.328125 C 94.914062 -83.523438 83.859375 -75.359375 72.421875 -68.828125 C 75.140625 -65.773438 76.9375 -62.832031 77.8125 -60 C 76.070312 -57.375 74.273438 -52.898438 72.421875 -46.578125 C 70.566406 -40.265625 69.09375 -33.835938 68 -27.296875 C 65.925781 -15.304688 64.566406 -6.207031 63.921875 0 C 62.503906 0.320312 59.832031 0.484375 55.90625 0.484375 C 53.289062 0.484375 51.054688 0.320312 49.203125 0 C 50.179688 -1.738281 51.109375 -5.035156 51.984375 -9.890625 C 52.859375 -14.742188 53.296875 -18.800781 53.296875 -22.0625 C 53.296875 -27.1875 52.125 -31.957031 49.78125 -36.375 C 47.4375 -40.789062 44.191406 -44.085938 40.046875 -46.265625 C 34.710938 -43.535156 30.679688 -39.421875 27.953125 -33.921875 C 25.222656 -28.421875 23.859375 -22.070312 23.859375 -14.875 C 23.859375 -9.96875 24.84375 -7.515625 26.8125 -7.515625 C 29.425781 -7.515625 30.734375 -10.945312 30.734375 -17.8125 C 30.734375 -21.519531 30.351562 -24.082031 29.59375 -25.5 C 34.707031 -24.300781 37.265625 -20.976562 37.265625 -15.53125 C 37.265625 -11.164062 36.144531 -7.265625 33.90625 -3.828125 C 31.675781 -0.398438 28.601562 1.3125 24.6875 1.3125 C 21.300781 1.3125 18.382812 -0.101562 15.9375 -2.9375 C 13.488281 -5.769531 12.265625 -9.75 12.265625 -14.875 C 12.265625 -20.976562 13.570312 -26.863281 16.1875 -32.53125 C 18.800781 -38.195312 22.367188 -43.019531 26.890625 -47 C 31.410156 -50.976562 36.503906 -53.566406 42.171875 -54.765625 C 46.316406 -52.585938 49.722656 -50 52.390625 -47 C 55.054688 -44 56.988281 -40.320312 58.1875 -35.96875 C 58.957031 -41.300781 59.832031 -45.765625 60.8125 -49.359375 C 61.789062 -52.960938 63.097656 -56.179688 64.734375 -59.015625 C 63.421875 -62.285156 61.265625 -65.28125 58.265625 -68 C 55.273438 -70.726562 52.144531 -72.09375 48.875 -72.09375 C 38.300781 -71.4375 29.800781 -67.675781 23.375 -60.8125 C 16.945312 -53.945312 12.695312 -43.539062 10.625 -29.59375 C 10.300781 -31.113281 9.59375 -33.507812 8.5 -36.78125 C 7.738281 -38.851562 7.054688 -40.921875 6.453125 -42.984375 C 5.859375 -45.054688 5.613281 -46.800781 5.71875 -48.21875 C 7.789062 -57.59375 12.613281 -65.113281 20.1875 -70.78125 C 27.757812 -76.445312 38.519531 -79.609375 52.46875 -80.265625 C 54.21875 -80.265625 56.34375 -79.71875 58.84375 -78.625 C 61.351562 -77.539062 63.804688 -76.125 66.203125 -74.375 C 83.316406 -85.820312 97.59375 -98.738281 109.03125 -113.125 C 120.476562 -127.507812 126.203125 -141.617188 126.203125 -155.453125 C 126.203125 -164.722656 123.039062 -172.515625 116.71875 -178.828125 C 133.5 -176.984375 141.890625 -169.410156 141.890625 -156.109375 Z M 141.890625 -156.109375 "/></g></g></g><g fill="#ffffff" fill-opacity="1"><g transform="translate(299.815323, 982.23124)"><g><path d="M 30.078125 0.65625 C 26.148438 0.65625 23.097656 -0.515625 20.921875 -2.859375 C 18.742188 -5.203125 17.65625 -8.007812 17.65625 -11.28125 C 17.65625 -14.988281 18.90625 -18.285156 21.40625 -21.171875 C 23.914062 -24.054688 26.585938 -25.5 29.421875 -25.5 C 30.835938 -25.5 31.925781 -25.117188 32.6875 -24.359375 C 28.4375 -21.304688 26.3125 -16.890625 26.3125 -11.109375 C 26.3125 -7.847656 26.96875 -6.21875 28.28125 -6.21875 C 30.019531 -6.21875 31.707031 -10.25 33.34375 -18.3125 C 34.320312 -22.882812 35.140625 -27.625 35.796875 -32.53125 C 36.453125 -37.4375 36.78125 -40.429688 36.78125 -41.515625 C 36.78125 -44.347656 33.375 -47.398438 26.5625 -50.671875 C 19.75 -53.941406 13.128906 -56.175781 6.703125 -57.375 C 7.460938 -62.0625 9.175781 -66.117188 11.84375 -69.546875 C 14.519531 -72.984375 17.707031 -75.570312 21.40625 -77.3125 C 25.113281 -79.0625 28.820312 -79.9375 32.53125 -79.9375 C 34.820312 -79.9375 36.945312 -79.632812 38.90625 -79.03125 C 40.863281 -78.4375 43.207031 -77.59375 45.9375 -76.5 C 48.4375 -75.519531 50.445312 -74.785156 51.96875 -74.296875 C 53.5 -73.804688 55.082031 -73.5625 56.71875 -73.5625 C 59.445312 -73.5625 61.488281 -74.320312 62.84375 -75.84375 C 64.207031 -77.375 65.21875 -79.828125 65.875 -83.203125 L 66.6875 -82.875 C 70.175781 -81.238281 71.921875 -77.863281 71.921875 -72.75 C 71.921875 -68.707031 70.75 -65.515625 68.40625 -63.171875 C 66.0625 -60.835938 62.929688 -59.671875 59.015625 -59.671875 C 56.066406 -59.671875 53.472656 -60.210938 51.234375 -61.296875 C 49.003906 -62.390625 46.421875 -64.023438 43.484375 -66.203125 C 40.972656 -68.054688 38.953125 -69.390625 37.421875 -70.203125 C 35.898438 -71.023438 34.210938 -71.4375 32.359375 -71.4375 C 29.960938 -71.4375 27.8125 -70.617188 25.90625 -68.984375 C 24 -67.347656 22.554688 -65.113281 21.578125 -62.28125 C 30.835938 -59.445312 37.972656 -56.503906 42.984375 -53.453125 C 48.003906 -50.398438 50.515625 -46.585938 50.515625 -42.015625 C 50.515625 -40.046875 50.078125 -36.3125 49.203125 -30.8125 C 48.328125 -25.3125 47.566406 -21.035156 46.921875 -17.984375 C 44.191406 -5.554688 38.578125 0.65625 30.078125 0.65625 Z M 30.078125 0.65625 "/></g></g></g><g fill="#ffffff" fill-opacity="1"><g transform="translate(369.126638, 982.23124)"><g><path d="M 73.390625 -181.609375 C 81.242188 -173.765625 85.171875 -164.554688 85.171875 -153.984375 C 85.171875 -142.546875 81.082031 -132.140625 72.90625 -122.765625 C 64.726562 -113.390625 53.9375 -106.03125 40.53125 -100.6875 C 27.132812 -95.351562 12.914062 -92.6875 -2.125 -92.6875 C -8.113281 -92.6875 -13.890625 -93.175781 -19.453125 -94.15625 L -20.4375 -99.546875 C -15.75 -100.535156 -11.441406 -102.0625 -7.515625 -104.125 C -3.378906 -106.3125 -0.46875 -108.765625 1.21875 -111.484375 C 2.914062 -114.210938 3.765625 -117.753906 3.765625 -122.109375 C 3.765625 -127.015625 2.726562 -129.46875 0.65625 -129.46875 C -0.539062 -129.46875 -1.410156 -128.785156 -1.953125 -127.421875 C -2.503906 -126.054688 -2.78125 -124.285156 -2.78125 -122.109375 C -2.78125 -118.179688 -2.125 -114.75 -0.8125 -111.8125 C -3.539062 -112.25 -5.691406 -113.773438 -7.265625 -116.390625 C -8.847656 -119.003906 -9.640625 -121.726562 -9.640625 -124.5625 C -9.640625 -127.71875 -8.601562 -130.550781 -6.53125 -133.0625 C -4.46875 -135.570312 -1.800781 -136.828125 1.46875 -136.828125 C 4.738281 -136.828125 7.378906 -135.4375 9.390625 -132.65625 C 11.410156 -129.875 12.421875 -126.359375 12.421875 -122.109375 C 12.421875 -116.984375 11.003906 -112.515625 8.171875 -108.703125 C 5.335938 -104.890625 1.632812 -101.894531 -2.9375 -99.71875 C 18.414062 -100.800781 36.503906 -107.117188 51.328125 -118.671875 C 66.148438 -130.222656 73.5625 -149.460938 73.5625 -176.390625 Z M 73.390625 -181.609375 "/></g></g></g><g fill="#ffffff" fill-opacity="1"><g transform="translate(372.886421, 982.23124)"><g><path d="M 32.203125 0 C 34.160156 -11.332031 37.320312 -26.644531 41.6875 -45.9375 C 43.757812 -54.4375 44.796875 -59.445312 44.796875 -60.96875 C 44.796875 -62.0625 44.410156 -63.476562 43.640625 -65.21875 C 42.878906 -66.96875 41.765625 -68.519531 40.296875 -69.875 C 38.828125 -71.238281 37 -71.921875 34.8125 -71.921875 C 31.875 -71.921875 28.820312 -70.585938 25.65625 -67.921875 C 22.5 -65.253906 19.476562 -61.359375 16.59375 -56.234375 C 13.707031 -51.109375 11.335938 -45.003906 9.484375 -37.921875 L 8.65625 -38.421875 C 8.65625 -39.066406 8.519531 -40.125 8.25 -41.59375 C 7.976562 -43.070312 7.734375 -44.25 7.515625 -45.125 C 7.410156 -45.664062 7.140625 -46.96875 6.703125 -49.03125 C 6.265625 -51.101562 6.101562 -52.632812 6.21875 -53.625 C 7.84375 -59.175781 10.453125 -63.96875 14.046875 -68 C 17.648438 -72.03125 21.628906 -75.050781 25.984375 -77.0625 C 30.347656 -79.082031 34.492188 -80.09375 38.421875 -80.09375 C 42.671875 -80.09375 46.375 -79.003906 49.53125 -76.828125 C 52.6875 -74.648438 55.132812 -72.144531 56.875 -69.3125 C 58.625 -66.476562 59.5 -64.242188 59.5 -62.609375 C 59.5 -61.410156 58.519531 -56.34375 56.5625 -47.40625 C 52.96875 -32.039062 49.753906 -16.238281 46.921875 0 Z M 32.203125 0 "/></g></g></g><g fill="#ffffff" fill-opacity="1"><g transform="translate(440.562995, 982.23124)"><g><path d="M 35.96875 0.328125 C 32.914062 0.328125 29.832031 0 26.71875 -0.65625 C 23.613281 -1.3125 21.242188 -2.019531 19.609375 -2.78125 C 20.160156 -7.6875 20.4375 -12.046875 20.4375 -15.859375 C 20.101562 -45.492188 12.691406 -64.457031 -1.796875 -72.75 C 0.921875 -76.34375 4.515625 -78.140625 8.984375 -78.140625 C 16.285156 -78.140625 21.546875 -73.148438 24.765625 -63.171875 C 27.984375 -53.203125 29.59375 -39.828125 29.59375 -23.046875 C 29.59375 -19.890625 29.484375 -15.039062 29.265625 -8.5 C 31.003906 -7.738281 33.347656 -7.359375 36.296875 -7.359375 C 39.890625 -7.359375 42.394531 -7.847656 43.8125 -8.828125 C 44.351562 -14.171875 45.222656 -19.238281 46.421875 -24.03125 C 47.617188 -28.820312 49.363281 -34.925781 51.65625 -42.34375 C 53.726562 -48.875 55.226562 -54.046875 56.15625 -57.859375 C 57.082031 -61.679688 57.546875 -65.28125 57.546875 -68.65625 C 57.546875 -70.1875 57.40625 -71.273438 57.125 -71.921875 C 56.851562 -72.578125 56.394531 -72.90625 55.75 -72.90625 C 54.332031 -72.90625 53.160156 -71.816406 52.234375 -69.640625 C 51.304688 -67.460938 50.84375 -65.007812 50.84375 -62.28125 C 50.84375 -59.769531 50.921875 -57.695312 51.078125 -56.0625 C 51.242188 -54.4375 51.65625 -52.804688 52.3125 -51.171875 C 49.144531 -51.929688 46.800781 -53.425781 45.28125 -55.65625 C 43.757812 -57.894531 43 -60.757812 43 -64.25 C 43 -69.257812 44.492188 -73.34375 47.484375 -76.5 C 50.484375 -79.664062 54.160156 -81.25 58.515625 -81.25 C 62.003906 -81.25 64.753906 -80.128906 66.765625 -77.890625 C 68.785156 -75.660156 69.796875 -72.421875 69.796875 -68.171875 C 69.796875 -64.785156 69.195312 -60.910156 68 -56.546875 C 66.800781 -52.191406 65.003906 -46.421875 62.609375 -39.234375 C 60.097656 -31.816406 58.050781 -25.273438 56.46875 -19.609375 C 54.894531 -13.941406 53.835938 -8.441406 53.296875 -3.109375 C 51.765625 -2.015625 49.253906 -1.164062 45.765625 -0.5625 C 42.285156 0.03125 39.019531 0.328125 35.96875 0.328125 Z M 35.96875 0.328125 "/></g></g></g><g fill="#ffffff" fill-opacity="1"><g transform="translate(516.086147, 982.23124)"><g><path d="M 46.921875 -80.09375 C 51.597656 -80.09375 56.414062 -78.972656 61.375 -76.734375 C 66.34375 -74.503906 70.347656 -71.78125 73.390625 -68.5625 C 76.441406 -65.351562 77.753906 -62.390625 77.328125 -59.671875 L 72.90625 -36.9375 C 69.414062 -19.5 67.019531 -7.1875 65.71875 0 L 51 0 C 53.175781 -11.988281 55.46875 -23.757812 57.875 -35.3125 L 62.28125 -58.6875 C 62.5 -59.882812 62.007812 -61.515625 60.8125 -63.578125 C 59.613281 -65.648438 57.597656 -67.503906 54.765625 -69.140625 C 51.929688 -70.773438 48.332031 -71.59375 43.96875 -71.59375 C 37.21875 -71.59375 31.929688 -69.410156 28.109375 -65.046875 C 24.296875 -60.691406 22.390625 -54.101562 22.390625 -45.28125 L 22.5625 -35.46875 L 22.890625 -22.390625 C 22.890625 -19.554688 22.832031 -17.429688 22.71875 -16.015625 C 24.6875 -19.179688 28.066406 -23.160156 32.859375 -27.953125 C 36.566406 -31.660156 39.234375 -34.738281 40.859375 -37.1875 C 42.492188 -39.644531 43.3125 -42.453125 43.3125 -45.609375 C 43.3125 -48.222656 42.601562 -49.53125 41.1875 -49.53125 C 39.988281 -49.53125 38.875 -48.628906 37.84375 -46.828125 C 36.8125 -45.035156 36.019531 -42.722656 35.46875 -39.890625 C 35.03125 -36.835938 34.867188 -34.328125 34.984375 -32.359375 C 33.453125 -32.796875 32.222656 -33.773438 31.296875 -35.296875 C 30.378906 -36.828125 29.921875 -38.789062 29.921875 -41.1875 C 29.921875 -45.332031 31.171875 -48.957031 33.671875 -52.0625 C 36.179688 -55.164062 39.34375 -56.71875 43.15625 -56.71875 C 45.769531 -56.71875 47.921875 -55.875 49.609375 -54.1875 C 51.296875 -52.5 52.140625 -49.910156 52.140625 -46.421875 C 52.140625 -42.390625 51.078125 -38.738281 48.953125 -35.46875 C 46.828125 -32.195312 43.53125 -28.164062 39.0625 -23.375 C 34.707031 -18.6875 31.382812 -14.679688 29.09375 -11.359375 C 26.8125 -8.035156 25.285156 -4.25 24.515625 0 C 23.535156 0.320312 21.191406 0.484375 17.484375 0.484375 C 12.585938 0.484375 9.375 0.320312 7.84375 0 C 8.820312 -3.59375 9.582031 -6.722656 10.125 -9.390625 C 10.675781 -12.066406 10.953125 -14.820312 10.953125 -17.65625 C 10.953125 -21.6875 10.351562 -27.40625 9.15625 -34.8125 C 9.039062 -36.125 8.765625 -38.414062 8.328125 -41.6875 C 7.898438 -44.957031 7.6875 -47.519531 7.6875 -49.375 C 7.6875 -56.238281 9.972656 -61.984375 14.546875 -66.609375 C 19.128906 -71.242188 24.5 -74.648438 30.65625 -76.828125 C 36.8125 -79.003906 42.234375 -80.09375 46.921875 -80.09375 Z M 46.921875 -80.09375 "/></g></g></g><g fill="#ffffff" fill-opacity="1"><g transform="translate(599.782775, 982.23124)"><g><path d="M 73.390625 -181.609375 C 81.242188 -173.765625 85.171875 -164.554688 85.171875 -153.984375 C 85.171875 -142.546875 81.082031 -132.140625 72.90625 -122.765625 C 64.726562 -113.390625 53.9375 -106.03125 40.53125 -100.6875 C 27.132812 -95.351562 12.914062 -92.6875 -2.125 -92.6875 C -8.113281 -92.6875 -13.890625 -93.175781 -19.453125 -94.15625 L -20.4375 -99.546875 C -15.75 -100.535156 -11.441406 -102.0625 -7.515625 -104.125 C -3.378906 -106.3125 -0.46875 -108.765625 1.21875 -111.484375 C 2.914062 -114.210938 3.765625 -117.753906 3.765625 -122.109375 C 3.765625 -127.015625 2.726562 -129.46875 0.65625 -129.46875 C -0.539062 -129.46875 -1.410156 -128.785156 -1.953125 -127.421875 C -2.503906 -126.054688 -2.78125 -124.285156 -2.78125 -122.109375 C -2.78125 -118.179688 -2.125 -114.75 -0.8125 -111.8125 C -3.539062 -112.25 -5.691406 -113.773438 -7.265625 -116.390625 C -8.847656 -119.003906 -9.640625 -121.726562 -9.640625 -124.5625 C -9.640625 -127.71875 -8.601562 -130.550781 -6.53125 -133.0625 C -4.46875 -135.570312 -1.800781 -136.828125 1.46875 -136.828125 C 4.738281 -136.828125 7.378906 -135.4375 9.390625 -132.65625 C 11.410156 -129.875 12.421875 -126.359375 12.421875 -122.109375 C 12.421875 -116.984375 11.003906 -112.515625 8.171875 -108.703125 C 5.335938 -104.890625 1.632812 -101.894531 -2.9375 -99.71875 C 18.414062 -100.800781 36.503906 -107.117188 51.328125 -118.671875 C 66.148438 -130.222656 73.5625 -149.460938 73.5625 -176.390625 Z M 73.390625 -181.609375 "/></g></g></g><g fill="#ffffff" fill-opacity="1"><g transform="translate(602.888727, 982.23124)"><g><path d="M 36.296875 0.65625 C 32.253906 0.65625 29.171875 -0.488281 27.046875 -2.78125 C 24.921875 -5.070312 23.859375 -8.234375 23.859375 -12.265625 C 23.859375 -16.835938 25.054688 -20.726562 27.453125 -23.9375 C 29.859375 -27.15625 32.804688 -28.765625 36.296875 -28.765625 C 37.378906 -28.765625 38.46875 -28.601562 39.5625 -28.28125 C 37.269531 -26.320312 35.492188 -23.894531 34.234375 -21 C 32.984375 -18.113281 32.359375 -15.203125 32.359375 -12.265625 C 32.359375 -10.734375 32.578125 -9.585938 33.015625 -8.828125 C 33.453125 -8.066406 34.160156 -7.6875 35.140625 -7.6875 C 36.773438 -7.6875 38.03125 -8.640625 38.90625 -10.546875 C 39.78125 -12.453125 40.597656 -15.3125 41.359375 -19.125 C 43.429688 -28.9375 45.117188 -36.675781 46.421875 -42.34375 C 47.734375 -48.007812 49.53125 -54.382812 51.8125 -61.46875 C 52.03125 -62.664062 51.429688 -64 50.015625 -65.46875 C 48.597656 -66.9375 46.9375 -68.242188 45.03125 -69.390625 C 43.125 -70.535156 41.789062 -71.109375 41.03125 -71.109375 C 34.707031 -71.109375 29.117188 -68.628906 24.265625 -63.671875 C 19.421875 -58.710938 16.179688 -51.710938 14.546875 -42.671875 C 13.671875 -37.648438 13.070312 -31.816406 12.75 -25.171875 L 11.9375 -25.984375 C 11.601562 -26.859375 10.921875 -27.976562 9.890625 -29.34375 C 8.859375 -30.707031 8.234375 -31.550781 8.015625 -31.875 C 5.285156 -34.925781 3.8125 -37.269531 3.59375 -38.90625 C 4.132812 -44.351562 4.515625 -47.675781 4.734375 -48.875 C 6.046875 -55.414062 8.71875 -61.03125 12.75 -65.71875 C 16.78125 -70.40625 21.4375 -73.972656 26.71875 -76.421875 C 32.007812 -78.867188 37.160156 -80.09375 42.171875 -80.09375 C 47.398438 -80.09375 51.8125 -79.003906 55.40625 -76.828125 C 59.007812 -74.648438 61.679688 -72.144531 63.421875 -69.3125 C 65.171875 -66.476562 66.046875 -64.242188 66.046875 -62.609375 C 62.554688 -52.578125 59.335938 -40.476562 56.390625 -26.3125 L 54.921875 -19.78125 C 53.617188 -14.21875 51.6875 -9.421875 49.125 -5.390625 C 46.5625 -1.359375 42.285156 0.65625 36.296875 0.65625 Z M 36.296875 0.65625 "/></g></g></g><g fill="#ffffff" fill-opacity="1"><g transform="translate(675.142466, 982.23124)"><g><path d="M 80.265625 -79.28125 C 79.503906 -75.144531 77.757812 -67.40625 75.03125 -56.0625 C 72.957031 -47.78125 71.40625 -41 70.375 -35.71875 C 69.34375 -30.4375 68.828125 -25.671875 68.828125 -21.421875 C 68.828125 -19.128906 68.988281 -17.382812 69.3125 -16.1875 C 64.300781 -11.0625 58.632812 -6.972656 52.3125 -3.921875 C 45.988281 -0.867188 39.882812 0.65625 34 0.65625 C 29.425781 0.65625 25.015625 -0.238281 20.765625 -2.03125 C 16.515625 -3.832031 13.050781 -6.3125 10.375 -9.46875 C 7.707031 -12.632812 6.375 -16.125 6.375 -19.9375 C 6.375 -23.757812 7.679688 -27.492188 10.296875 -31.140625 C 12.910156 -34.785156 16.34375 -37.425781 20.59375 -39.0625 C 17.757812 -40.695312 15.578125 -43.015625 14.046875 -46.015625 C 12.523438 -49.015625 11.765625 -52.472656 11.765625 -56.390625 C 11.765625 -60.972656 12.800781 -65.085938 14.875 -68.734375 C 16.945312 -72.390625 19.671875 -75.222656 23.046875 -77.234375 C 26.421875 -79.253906 29.910156 -80.265625 33.515625 -80.265625 C 36.453125 -80.265625 38.789062 -79.554688 40.53125 -78.140625 C 42.28125 -76.722656 43.15625 -74.597656 43.15625 -71.765625 C 43.15625 -69.148438 42.414062 -66.535156 40.9375 -63.921875 C 39.46875 -61.304688 37.453125 -59.179688 34.890625 -57.546875 C 32.335938 -55.910156 29.585938 -55.09375 26.640625 -55.09375 C 28.710938 -57.59375 30.535156 -60.367188 32.109375 -63.421875 C 33.691406 -66.472656 34.484375 -69.035156 34.484375 -71.109375 C 34.484375 -72.847656 33.832031 -73.71875 32.53125 -73.71875 C 31 -73.71875 29.550781 -72.570312 28.1875 -70.28125 C 26.832031 -68 25.769531 -65.304688 25 -62.203125 C 24.238281 -59.097656 23.859375 -56.398438 23.859375 -54.109375 C 23.859375 -47.347656 27.835938 -43.96875 35.796875 -43.96875 C 40.597656 -43.96875 44.46875 -45.0625 47.40625 -47.25 C 47.726562 -46.15625 47.890625 -45.117188 47.890625 -44.140625 C 47.890625 -41.410156 46.9375 -39.144531 45.03125 -37.34375 C 43.125 -35.550781 40.703125 -34.65625 37.765625 -34.65625 C 36.785156 -34.65625 35.503906 -34.789062 33.921875 -35.0625 C 32.335938 -35.332031 31.273438 -35.46875 30.734375 -35.46875 C 27.785156 -35.46875 25.492188 -33.804688 23.859375 -30.484375 C 22.234375 -27.160156 21.421875 -23.972656 21.421875 -20.921875 C 21.421875 -17.109375 22.890625 -13.945312 25.828125 -11.4375 C 28.765625 -8.9375 31.867188 -7.6875 35.140625 -7.6875 C 38.085938 -7.6875 41.578125 -8.664062 45.609375 -10.625 C 49.640625 -12.582031 52.691406 -14.816406 54.765625 -17.328125 C 54.546875 -19.285156 54.4375 -20.972656 54.4375 -22.390625 C 54.4375 -26.421875 54.898438 -31.078125 55.828125 -36.359375 C 56.753906 -41.648438 58.25 -48.925781 60.3125 -58.1875 C 61.726562 -64.507812 63.203125 -71.539062 64.734375 -79.28125 Z M 80.265625 -79.28125 "/></g></g></g><g fill="#ffffff" fill-opacity="1"><g transform="translate(760.146891, 982.23124)"><g><path d="M 146.796875 -152.1875 C 146.796875 -142.59375 143.363281 -132.238281 136.5 -121.125 C 129.632812 -110.007812 120.78125 -99.492188 109.9375 -89.578125 C 99.09375 -79.660156 88.003906 -71.539062 76.671875 -65.21875 C 77.972656 -62.71875 78.460938 -60.703125 78.140625 -59.171875 C 77.160156 -54.378906 75.523438 -47.566406 73.234375 -38.734375 C 70.835938 -29.253906 69.066406 -21.679688 67.921875 -16.015625 C 66.773438 -10.347656 66.203125 -5.007812 66.203125 0 L 51.65625 0 C 51.65625 -4.789062 52.390625 -10.425781 53.859375 -16.90625 C 55.328125 -23.394531 57.316406 -31.21875 59.828125 -40.375 C 60.921875 -44.300781 61.898438 -47.925781 62.765625 -51.25 C 63.640625 -54.570312 64.078125 -56.882812 64.078125 -58.1875 C 64.078125 -59.9375 63.613281 -61.875 62.6875 -64 C 61.757812 -66.125 60.125 -68.03125 57.78125 -69.71875 C 55.4375 -71.40625 52.25 -72.25 48.21875 -72.25 C 43.96875 -72.25 40.070312 -71.238281 36.53125 -69.21875 C 32.988281 -67.207031 30.15625 -64.507812 28.03125 -61.125 C 25.90625 -57.75 24.789062 -54.101562 24.6875 -50.1875 C 24.25 -41.03125 23.921875 -34.707031 23.703125 -31.21875 C 25.878906 -36.226562 28.382812 -40.863281 31.21875 -45.125 C 35.800781 -51.550781 41.085938 -54.765625 47.078125 -54.765625 C 52.304688 -54.765625 54.921875 -52.363281 54.921875 -47.5625 C 54.921875 -44.625 54.019531 -41.875 52.21875 -39.3125 C 50.425781 -36.75 48.164062 -34.703125 45.4375 -33.171875 C 42.71875 -31.648438 39.992188 -30.890625 37.265625 -30.890625 C 35.628906 -30.890625 34.320312 -31.21875 33.34375 -31.875 C 36.289062 -32.96875 39.207031 -34.957031 42.09375 -37.84375 C 44.976562 -40.726562 46.421875 -43.207031 46.421875 -45.28125 C 46.421875 -46.476562 45.710938 -47.078125 44.296875 -47.078125 C 41.898438 -47.078125 39.234375 -45.007812 36.296875 -40.875 C 33.460938 -36.832031 30.84375 -32.03125 28.4375 -26.46875 C 26.039062 -20.914062 24.082031 -14.765625 22.5625 -8.015625 C 22.007812 -5.609375 21.570312 -2.9375 21.25 0 C 19.613281 0.320312 17.328125 0.484375 14.390625 0.484375 C 11.554688 0.484375 9.320312 0.320312 7.6875 0 C 8.664062 -3.050781 9.476562 -6.644531 10.125 -10.78125 C 10.78125 -14.925781 11.109375 -18.796875 11.109375 -22.390625 C 11.109375 -25.222656 10.785156 -28.929688 10.140625 -33.515625 C 10.023438 -34.273438 9.859375 -35.691406 9.640625 -37.765625 C 9.421875 -39.835938 9.3125 -41.742188 9.3125 -43.484375 C 9.3125 -51.660156 11.546875 -58.523438 16.015625 -64.078125 C 20.484375 -69.640625 25.878906 -73.726562 32.203125 -76.34375 C 38.523438 -78.957031 44.519531 -80.265625 50.1875 -80.265625 C 54.539062 -80.265625 58.539062 -79.445312 62.1875 -77.8125 C 65.84375 -76.175781 69.035156 -74.101562 71.765625 -71.59375 C 88.648438 -82.820312 102.734375 -95.597656 114.015625 -109.921875 C 125.296875 -124.253906 130.9375 -138.34375 130.9375 -152.1875 C 130.9375 -161.5625 127.832031 -169.351562 121.625 -175.5625 C 130.5625 -174.582031 136.988281 -172.128906 140.90625 -168.203125 C 144.832031 -164.285156 146.796875 -158.945312 146.796875 -152.1875 Z M 146.796875 -152.1875 "/></g></g></g><g fill="#ffffff" fill-opacity="1"><g transform="translate(846.459046, 982.23124)"><g><path d="M 30.078125 0.65625 C 26.148438 0.65625 23.097656 -0.515625 20.921875 -2.859375 C 18.742188 -5.203125 17.65625 -8.007812 17.65625 -11.28125 C 17.65625 -14.988281 18.90625 -18.285156 21.40625 -21.171875 C 23.914062 -24.054688 26.585938 -25.5 29.421875 -25.5 C 30.835938 -25.5 31.925781 -25.117188 32.6875 -24.359375 C 28.4375 -21.304688 26.3125 -16.890625 26.3125 -11.109375 C 26.3125 -7.847656 26.96875 -6.21875 28.28125 -6.21875 C 30.019531 -6.21875 31.707031 -10.25 33.34375 -18.3125 C 34.320312 -22.882812 35.140625 -27.625 35.796875 -32.53125 C 36.453125 -37.4375 36.78125 -40.429688 36.78125 -41.515625 C 36.78125 -44.347656 33.375 -47.398438 26.5625 -50.671875 C 19.75 -53.941406 13.128906 -56.175781 6.703125 -57.375 C 7.460938 -62.0625 9.175781 -66.117188 11.84375 -69.546875 C 14.519531 -72.984375 17.707031 -75.570312 21.40625 -77.3125 C 25.113281 -79.0625 28.820312 -79.9375 32.53125 -79.9375 C 34.820312 -79.9375 36.945312 -79.632812 38.90625 -79.03125 C 40.863281 -78.4375 43.207031 -77.59375 45.9375 -76.5 C 48.4375 -75.519531 50.445312 -74.785156 51.96875 -74.296875 C 53.5 -73.804688 55.082031 -73.5625 56.71875 -73.5625 C 59.445312 -73.5625 61.488281 -74.320312 62.84375 -75.84375 C 64.207031 -77.375 65.21875 -79.828125 65.875 -83.203125 L 66.6875 -82.875 C 70.175781 -81.238281 71.921875 -77.863281 71.921875 -72.75 C 71.921875 -68.707031 70.75 -65.515625 68.40625 -63.171875 C 66.0625 -60.835938 62.929688 -59.671875 59.015625 -59.671875 C 56.066406 -59.671875 53.472656 -60.210938 51.234375 -61.296875 C 49.003906 -62.390625 46.421875 -64.023438 43.484375 -66.203125 C 40.972656 -68.054688 38.953125 -69.390625 37.421875 -70.203125 C 35.898438 -71.023438 34.210938 -71.4375 32.359375 -71.4375 C 29.960938 -71.4375 27.8125 -70.617188 25.90625 -68.984375 C 24 -67.347656 22.554688 -65.113281 21.578125 -62.28125 C 30.835938 -59.445312 37.972656 -56.503906 42.984375 -53.453125 C 48.003906 -50.398438 50.515625 -46.585938 50.515625 -42.015625 C 50.515625 -40.046875 50.078125 -36.3125 49.203125 -30.8125 C 48.328125 -25.3125 47.566406 -21.035156 46.921875 -17.984375 C 44.191406 -5.554688 38.578125 0.65625 30.078125 0.65625 Z M 30.078125 0.65625 "/></g></g></g><g fill="#ffffff" fill-opacity="1"><g transform="translate(915.770361, 982.23124)"><g><path d="M 12.59375 -90.390625 C 7.03125 -90.390625 1.171875 -91.179688 -4.984375 -92.765625 C -11.140625 -94.347656 -16.367188 -96.742188 -20.671875 -99.953125 C -24.984375 -103.171875 -27.140625 -107.125 -27.140625 -111.8125 C -27.140625 -115.625 -25.832031 -118.753906 -23.21875 -121.203125 C -20.601562 -123.660156 -16.953125 -124.890625 -12.265625 -124.890625 C -8.878906 -124.890625 -5.710938 -123.71875 -2.765625 -121.375 C 0.171875 -119.03125 1.640625 -115.894531 1.640625 -111.96875 C 1.640625 -109.570312 0.875 -106.847656 -0.65625 -103.796875 C -2.289062 -107.828125 -4.195312 -111.097656 -6.375 -113.609375 C -8.550781 -116.117188 -10.785156 -117.375 -13.078125 -117.375 C -14.492188 -117.375 -15.609375 -117.019531 -16.421875 -116.3125 C -17.242188 -115.601562 -17.65625 -114.539062 -17.65625 -113.125 C -17.65625 -110.613281 -16.070312 -108.238281 -12.90625 -106 C -9.75 -103.769531 -5.800781 -101.972656 -1.0625 -100.609375 C 3.675781 -99.253906 8.226562 -98.578125 12.59375 -98.578125 C 28.0625 -98.578125 42.71875 -101.867188 56.5625 -108.453125 C 70.40625 -115.046875 81.578125 -124.066406 90.078125 -135.515625 C 98.578125 -146.960938 102.828125 -159.660156 102.828125 -173.609375 C 102.828125 -180.910156 101.734375 -186.738281 99.546875 -191.09375 C 104.890625 -188.914062 109.03125 -185.78125 111.96875 -181.6875 C 114.914062 -177.601562 116.390625 -172.945312 116.390625 -167.71875 C 116.390625 -152.894531 111.296875 -139.570312 101.109375 -127.75 C 90.921875 -115.925781 77.785156 -106.742188 61.703125 -100.203125 C 45.628906 -93.660156 29.257812 -90.390625 12.59375 -90.390625 Z M 12.59375 -90.390625 "/></g></g></g><g fill="#ffffff" fill-opacity="1"><g transform="translate(919.530155, 982.23124)"><g><path d="M 81.734375 -66.046875 C 81.734375 -64.078125 79.878906 -53.613281 76.171875 -34.65625 C 72.691406 -16.34375 70.515625 -4.789062 69.640625 0 L 54.265625 0 L 57.21875 -14.875 C 63.644531 -46.476562 66.859375 -62.609375 66.859375 -63.265625 C 66.859375 -64.785156 66.503906 -66.0625 65.796875 -67.09375 C 65.085938 -68.132812 64.023438 -68.65625 62.609375 -68.65625 C 59.015625 -68.65625 54.4375 -65.25 48.875 -58.4375 C 43.320312 -51.625 38.144531 -42.90625 33.34375 -32.28125 C 28.550781 -21.65625 25.175781 -10.894531 23.21875 0 C 21.582031 0.320312 19.289062 0.484375 16.34375 0.484375 C 13.070312 0.484375 10.617188 0.320312 8.984375 0 C 9.972656 -2.507812 10.789062 -5.179688 11.4375 -8.015625 C 12.09375 -10.847656 12.859375 -14.660156 13.734375 -19.453125 L 24.1875 -69.640625 C 24.1875 -71.597656 23.644531 -72.578125 22.5625 -72.578125 C 20.8125 -72.578125 19.421875 -70.882812 18.390625 -67.5 C 17.359375 -64.125 16.84375 -60.585938 16.84375 -56.890625 C 16.84375 -54.492188 17.113281 -52.09375 17.65625 -49.6875 C 12.644531 -51 10.140625 -54.648438 10.140625 -60.640625 C 10.140625 -64.242188 10.957031 -67.539062 12.59375 -70.53125 C 14.226562 -73.53125 16.351562 -75.898438 18.96875 -77.640625 C 21.582031 -79.390625 24.304688 -80.265625 27.140625 -80.265625 C 30.078125 -80.265625 32.472656 -79.335938 34.328125 -77.484375 C 36.179688 -75.628906 37.109375 -73.066406 37.109375 -69.796875 C 37.109375 -68.492188 36.34375 -64.734375 34.8125 -58.515625 C 33.289062 -52.304688 32.3125 -48.273438 31.875 -46.421875 C 31.550781 -45.441406 31.171875 -43.972656 30.734375 -42.015625 C 35.742188 -52.910156 41.378906 -62.0625 47.640625 -69.46875 C 53.910156 -76.882812 60.316406 -80.59375 66.859375 -80.59375 C 70.785156 -80.59375 74.242188 -79.253906 77.234375 -76.578125 C 80.234375 -73.910156 81.734375 -70.398438 81.734375 -66.046875 Z M 81.734375 -66.046875 "/></g></g></g><g fill="#ffffff" fill-opacity="1"><g transform="translate(1009.765633, 982.23124)"><g><path d="M 31.71875 0.65625 C 28.445312 0.65625 25.363281 0.0820312 22.46875 -1.0625 C 19.582031 -2.207031 16.234375 -3.816406 12.421875 -5.890625 C 8.066406 -8.171875 5.015625 -9.476562 3.265625 -9.8125 C 4.460938 -11.988281 5.632812 -15.5 6.78125 -20.34375 C 7.925781 -25.195312 9.097656 -31.113281 10.296875 -38.09375 C 10.734375 -40.375 11.847656 -42.195312 13.640625 -43.5625 C 15.441406 -44.925781 17.488281 -45.609375 19.78125 -45.609375 C 21.082031 -45.609375 22.222656 -45.414062 23.203125 -45.03125 C 24.191406 -44.65625 25.09375 -44.222656 25.90625 -43.734375 C 26.726562 -43.242188 27.359375 -42.890625 27.796875 -42.671875 C 27.023438 -41.796875 26.367188 -40.8125 25.828125 -39.71875 C 25.285156 -38.632812 24.796875 -37 24.359375 -34.8125 C 23.703125 -31.550781 23.265625 -29.15625 23.046875 -27.625 C 22.171875 -23.375 21.515625 -20.40625 21.078125 -18.71875 C 20.648438 -17.03125 20.054688 -15.804688 19.296875 -15.046875 C 20.492188 -13.410156 22.234375 -11.882812 24.515625 -10.46875 C 26.804688 -9.050781 29.257812 -8.34375 31.875 -8.34375 C 34.707031 -8.34375 37.539062 -9.15625 40.375 -10.78125 C 43.207031 -12.414062 45.28125 -14.4375 46.59375 -16.84375 C 47.03125 -19.125 47.738281 -22.445312 48.71875 -26.8125 C 48.9375 -27.675781 49.367188 -29.660156 50.015625 -32.765625 C 50.671875 -35.878906 51 -38.035156 51 -39.234375 C 51 -40.210938 50.644531 -41.132812 49.9375 -42 C 49.226562 -42.875 47.894531 -43.859375 45.9375 -44.953125 C 41.46875 -47.460938 35.910156 -49.613281 29.265625 -51.40625 C 22.617188 -53.207031 16.1875 -54.65625 9.96875 -55.75 C 10.726562 -63.375 13.425781 -69.3125 18.0625 -73.5625 C 22.695312 -77.8125 28.226562 -79.9375 34.65625 -79.9375 C 37.050781 -79.9375 39.253906 -79.691406 41.265625 -79.203125 C 43.285156 -78.710938 45.878906 -77.921875 49.046875 -76.828125 C 50.785156 -76.285156 52.550781 -75.769531 54.34375 -75.28125 C 56.144531 -74.789062 57.703125 -74.546875 59.015625 -74.546875 C 64.242188 -74.546875 67.515625 -77.8125 68.828125 -84.34375 L 69.46875 -84.015625 C 74.914062 -82.390625 77.640625 -78.796875 77.640625 -73.234375 C 77.640625 -69.085938 76.222656 -65.734375 73.390625 -63.171875 C 70.554688 -60.617188 66.960938 -59.34375 62.609375 -59.34375 C 59.660156 -59.34375 56.960938 -59.882812 54.515625 -60.96875 C 52.066406 -62.0625 49.316406 -63.585938 46.265625 -65.546875 C 43.648438 -67.296875 41.414062 -68.578125 39.5625 -69.390625 C 37.707031 -70.210938 35.742188 -70.625 33.671875 -70.625 C 31.171875 -70.625 28.910156 -69.882812 26.890625 -68.40625 C 24.867188 -66.9375 23.367188 -64.785156 22.390625 -61.953125 C 27.515625 -61.078125 33.695312 -59.46875 40.9375 -57.125 C 48.1875 -54.789062 54.15625 -52.367188 58.84375 -49.859375 C 61.675781 -48.328125 63.582031 -46.960938 64.5625 -45.765625 C 65.550781 -44.566406 66.046875 -43.039062 66.046875 -41.1875 C 66.046875 -38.6875 65.523438 -35.3125 64.484375 -31.0625 C 63.453125 -26.8125 62.878906 -24.359375 62.765625 -23.703125 L 61.625 -18.796875 C 61.519531 -18.253906 61.46875 -16.894531 61.46875 -14.71875 C 57.863281 -10.351562 53.28125 -6.695312 47.71875 -3.75 C 42.164062 -0.8125 36.832031 0.65625 31.71875 0.65625 Z M 31.71875 0.65625 "/></g></g></g><g fill="#ffffff" fill-opacity="1"><g transform="translate(1089.702444, 982.23124)"><g><path d="M 32.203125 0 C 34.160156 -11.332031 37.320312 -26.644531 41.6875 -45.9375 C 43.757812 -54.4375 44.796875 -59.445312 44.796875 -60.96875 C 44.796875 -62.0625 44.410156 -63.476562 43.640625 -65.21875 C 42.878906 -66.96875 41.765625 -68.519531 40.296875 -69.875 C 38.828125 -71.238281 37 -71.921875 34.8125 -71.921875 C 31.875 -71.921875 28.820312 -70.585938 25.65625 -67.921875 C 22.5 -65.253906 19.476562 -61.359375 16.59375 -56.234375 C 13.707031 -51.109375 11.335938 -45.003906 9.484375 -37.921875 L 8.65625 -38.421875 C 8.65625 -39.066406 8.519531 -40.125 8.25 -41.59375 C 7.976562 -43.070312 7.734375 -44.25 7.515625 -45.125 C 7.410156 -45.664062 7.140625 -46.96875 6.703125 -49.03125 C 6.265625 -51.101562 6.101562 -52.632812 6.21875 -53.625 C 7.84375 -59.175781 10.453125 -63.96875 14.046875 -68 C 17.648438 -72.03125 21.628906 -75.050781 25.984375 -77.0625 C 30.347656 -79.082031 34.492188 -80.09375 38.421875 -80.09375 C 42.671875 -80.09375 46.375 -79.003906 49.53125 -76.828125 C 52.6875 -74.648438 55.132812 -72.144531 56.875 -69.3125 C 58.625 -66.476562 59.5 -64.242188 59.5 -62.609375 C 59.5 -61.410156 58.519531 -56.34375 56.5625 -47.40625 C 52.96875 -32.039062 49.753906 -16.238281 46.921875 0 Z M 32.203125 0 "/></g></g></g><g fill="#ffffff" fill-opacity="1"><g transform="translate(345.990684, 1177.945406)"><g><path d="M 141.890625 -156.109375 C 141.890625 -146.304688 138.507812 -135.84375 131.75 -124.71875 C 125 -113.601562 116.28125 -103.140625 105.59375 -93.328125 C 94.914062 -83.523438 83.859375 -75.359375 72.421875 -68.828125 C 75.140625 -65.773438 76.9375 -62.832031 77.8125 -60 C 76.070312 -57.375 74.273438 -52.898438 72.421875 -46.578125 C 70.566406 -40.265625 69.09375 -33.835938 68 -27.296875 C 65.925781 -15.304688 64.566406 -6.207031 63.921875 0 C 62.503906 0.320312 59.832031 0.484375 55.90625 0.484375 C 53.289062 0.484375 51.054688 0.320312 49.203125 0 C 50.179688 -1.738281 51.109375 -5.035156 51.984375 -9.890625 C 52.859375 -14.742188 53.296875 -18.800781 53.296875 -22.0625 C 53.296875 -27.1875 52.125 -31.957031 49.78125 -36.375 C 47.4375 -40.789062 44.191406 -44.085938 40.046875 -46.265625 C 34.710938 -43.535156 30.679688 -39.421875 27.953125 -33.921875 C 25.222656 -28.421875 23.859375 -22.070312 23.859375 -14.875 C 23.859375 -9.96875 24.84375 -7.515625 26.8125 -7.515625 C 29.425781 -7.515625 30.734375 -10.945312 30.734375 -17.8125 C 30.734375 -21.519531 30.351562 -24.082031 29.59375 -25.5 C 34.707031 -24.300781 37.265625 -20.976562 37.265625 -15.53125 C 37.265625 -11.164062 36.144531 -7.265625 33.90625 -3.828125 C 31.675781 -0.398438 28.601562 1.3125 24.6875 1.3125 C 21.300781 1.3125 18.382812 -0.101562 15.9375 -2.9375 C 13.488281 -5.769531 12.265625 -9.75 12.265625 -14.875 C 12.265625 -20.976562 13.570312 -26.863281 16.1875 -32.53125 C 18.800781 -38.195312 22.367188 -43.019531 26.890625 -47 C 31.410156 -50.976562 36.503906 -53.566406 42.171875 -54.765625 C 46.316406 -52.585938 49.722656 -50 52.390625 -47 C 55.054688 -44 56.988281 -40.320312 58.1875 -35.96875 C 58.957031 -41.300781 59.832031 -45.765625 60.8125 -49.359375 C 61.789062 -52.960938 63.097656 -56.179688 64.734375 -59.015625 C 63.421875 -62.285156 61.265625 -65.28125 58.265625 -68 C 55.273438 -70.726562 52.144531 -72.09375 48.875 -72.09375 C 38.300781 -71.4375 29.800781 -67.675781 23.375 -60.8125 C 16.945312 -53.945312 12.695312 -43.539062 10.625 -29.59375 C 10.300781 -31.113281 9.59375 -33.507812 8.5 -36.78125 C 7.738281 -38.851562 7.054688 -40.921875 6.453125 -42.984375 C 5.859375 -45.054688 5.613281 -46.800781 5.71875 -48.21875 C 7.789062 -57.59375 12.613281 -65.113281 20.1875 -70.78125 C 27.757812 -76.445312 38.519531 -79.609375 52.46875 -80.265625 C 54.21875 -80.265625 56.34375 -79.71875 58.84375 -78.625 C 61.351562 -77.539062 63.804688 -76.125 66.203125 -74.375 C 83.316406 -85.820312 97.59375 -98.738281 109.03125 -113.125 C 120.476562 -127.507812 126.203125 -141.617188 126.203125 -155.453125 C 126.203125 -164.722656 123.039062 -172.515625 116.71875 -178.828125 C 133.5 -176.984375 141.890625 -169.410156 141.890625 -156.109375 Z M 141.890625 -156.109375 "/></g></g></g><g fill="#ffffff" fill-opacity="1"><g transform="translate(434.591431, 1177.945406)"><g><path d="M 30.078125 0.65625 C 26.148438 0.65625 23.097656 -0.515625 20.921875 -2.859375 C 18.742188 -5.203125 17.65625 -8.007812 17.65625 -11.28125 C 17.65625 -14.988281 18.90625 -18.285156 21.40625 -21.171875 C 23.914062 -24.054688 26.585938 -25.5 29.421875 -25.5 C 30.835938 -25.5 31.925781 -25.117188 32.6875 -24.359375 C 28.4375 -21.304688 26.3125 -16.890625 26.3125 -11.109375 C 26.3125 -7.847656 26.96875 -6.21875 28.28125 -6.21875 C 30.019531 -6.21875 31.707031 -10.25 33.34375 -18.3125 C 34.320312 -22.882812 35.140625 -27.625 35.796875 -32.53125 C 36.453125 -37.4375 36.78125 -40.429688 36.78125 -41.515625 C 36.78125 -44.347656 33.375 -47.398438 26.5625 -50.671875 C 19.75 -53.941406 13.128906 -56.175781 6.703125 -57.375 C 7.460938 -62.0625 9.175781 -66.117188 11.84375 -69.546875 C 14.519531 -72.984375 17.707031 -75.570312 21.40625 -77.3125 C 25.113281 -79.0625 28.820312 -79.9375 32.53125 -79.9375 C 34.820312 -79.9375 36.945312 -79.632812 38.90625 -79.03125 C 40.863281 -78.4375 43.207031 -77.59375 45.9375 -76.5 C 48.4375 -75.519531 50.445312 -74.785156 51.96875 -74.296875 C 53.5 -73.804688 55.082031 -73.5625 56.71875 -73.5625 C 59.445312 -73.5625 61.488281 -74.320312 62.84375 -75.84375 C 64.207031 -77.375 65.21875 -79.828125 65.875 -83.203125 L 66.6875 -82.875 C 70.175781 -81.238281 71.921875 -77.863281 71.921875 -72.75 C 71.921875 -68.707031 70.75 -65.515625 68.40625 -63.171875 C 66.0625 -60.835938 62.929688 -59.671875 59.015625 -59.671875 C 56.066406 -59.671875 53.472656 -60.210938 51.234375 -61.296875 C 49.003906 -62.390625 46.421875 -64.023438 43.484375 -66.203125 C 40.972656 -68.054688 38.953125 -69.390625 37.421875 -70.203125 C 35.898438 -71.023438 34.210938 -71.4375 32.359375 -71.4375 C 29.960938 -71.4375 27.8125 -70.617188 25.90625 -68.984375 C 24 -67.347656 22.554688 -65.113281 21.578125 -62.28125 C 30.835938 -59.445312 37.972656 -56.503906 42.984375 -53.453125 C 48.003906 -50.398438 50.515625 -46.585938 50.515625 -42.015625 C 50.515625 -40.046875 50.078125 -36.3125 49.203125 -30.8125 C 48.328125 -25.3125 47.566406 -21.035156 46.921875 -17.984375 C 44.191406 -5.554688 38.578125 0.65625 30.078125 0.65625 Z M 30.078125 0.65625 "/></g></g></g><g fill="#ffffff" fill-opacity="1"><g transform="translate(503.902746, 1177.945406)"><g><path d="M 73.390625 -181.609375 C 81.242188 -173.765625 85.171875 -164.554688 85.171875 -153.984375 C 85.171875 -142.546875 81.082031 -132.140625 72.90625 -122.765625 C 64.726562 -113.390625 53.9375 -106.03125 40.53125 -100.6875 C 27.132812 -95.351562 12.914062 -92.6875 -2.125 -92.6875 C -8.113281 -92.6875 -13.890625 -93.175781 -19.453125 -94.15625 L -20.4375 -99.546875 C -15.75 -100.535156 -11.441406 -102.0625 -7.515625 -104.125 C -3.378906 -106.3125 -0.46875 -108.765625 1.21875 -111.484375 C 2.914062 -114.210938 3.765625 -117.753906 3.765625 -122.109375 C 3.765625 -127.015625 2.726562 -129.46875 0.65625 -129.46875 C -0.539062 -129.46875 -1.410156 -128.785156 -1.953125 -127.421875 C -2.503906 -126.054688 -2.78125 -124.285156 -2.78125 -122.109375 C -2.78125 -118.179688 -2.125 -114.75 -0.8125 -111.8125 C -3.539062 -112.25 -5.691406 -113.773438 -7.265625 -116.390625 C -8.847656 -119.003906 -9.640625 -121.726562 -9.640625 -124.5625 C -9.640625 -127.71875 -8.601562 -130.550781 -6.53125 -133.0625 C -4.46875 -135.570312 -1.800781 -136.828125 1.46875 -136.828125 C 4.738281 -136.828125 7.378906 -135.4375 9.390625 -132.65625 C 11.410156 -129.875 12.421875 -126.359375 12.421875 -122.109375 C 12.421875 -116.984375 11.003906 -112.515625 8.171875 -108.703125 C 5.335938 -104.890625 1.632812 -101.894531 -2.9375 -99.71875 C 18.414062 -100.800781 36.503906 -107.117188 51.328125 -118.671875 C 66.148438 -130.222656 73.5625 -149.460938 73.5625 -176.390625 Z M 73.390625 -181.609375 "/></g></g></g><g fill="#ffffff" fill-opacity="1"><g transform="translate(507.662529, 1177.945406)"><g><path d="M 32.203125 0 C 34.160156 -11.332031 37.320312 -26.644531 41.6875 -45.9375 C 43.757812 -54.4375 44.796875 -59.445312 44.796875 -60.96875 C 44.796875 -62.0625 44.410156 -63.476562 43.640625 -65.21875 C 42.878906 -66.96875 41.765625 -68.519531 40.296875 -69.875 C 38.828125 -71.238281 37 -71.921875 34.8125 -71.921875 C 31.875 -71.921875 28.820312 -70.585938 25.65625 -67.921875 C 22.5 -65.253906 19.476562 -61.359375 16.59375 -56.234375 C 13.707031 -51.109375 11.335938 -45.003906 9.484375 -37.921875 L 8.65625 -38.421875 C 8.65625 -39.066406 8.519531 -40.125 8.25 -41.59375 C 7.976562 -43.070312 7.734375 -44.25 7.515625 -45.125 C 7.410156 -45.664062 7.140625 -46.96875 6.703125 -49.03125 C 6.265625 -51.101562 6.101562 -52.632812 6.21875 -53.625 C 7.84375 -59.175781 10.453125 -63.96875 14.046875 -68 C 17.648438 -72.03125 21.628906 -75.050781 25.984375 -77.0625 C 30.347656 -79.082031 34.492188 -80.09375 38.421875 -80.09375 C 42.671875 -80.09375 46.375 -79.003906 49.53125 -76.828125 C 52.6875 -74.648438 55.132812 -72.144531 56.875 -69.3125 C 58.625 -66.476562 59.5 -64.242188 59.5 -62.609375 C 59.5 -61.410156 58.519531 -56.34375 56.5625 -47.40625 C 52.96875 -32.039062 49.753906 -16.238281 46.921875 0 Z M 32.203125 0 "/></g></g></g><g fill="#ffffff" fill-opacity="1"><g transform="translate(575.339103, 1177.945406)"><g><path d="M 35.96875 0.328125 C 32.914062 0.328125 29.832031 0 26.71875 -0.65625 C 23.613281 -1.3125 21.242188 -2.019531 19.609375 -2.78125 C 20.160156 -7.6875 20.4375 -12.046875 20.4375 -15.859375 C 20.101562 -45.492188 12.691406 -64.457031 -1.796875 -72.75 C 0.921875 -76.34375 4.515625 -78.140625 8.984375 -78.140625 C 16.285156 -78.140625 21.546875 -73.148438 24.765625 -63.171875 C 27.984375 -53.203125 29.59375 -39.828125 29.59375 -23.046875 C 29.59375 -19.890625 29.484375 -15.039062 29.265625 -8.5 C 31.003906 -7.738281 33.347656 -7.359375 36.296875 -7.359375 C 39.890625 -7.359375 42.394531 -7.847656 43.8125 -8.828125 C 44.351562 -14.171875 45.222656 -19.238281 46.421875 -24.03125 C 47.617188 -28.820312 49.363281 -34.925781 51.65625 -42.34375 C 53.726562 -48.875 55.226562 -54.046875 56.15625 -57.859375 C 57.082031 -61.679688 57.546875 -65.28125 57.546875 -68.65625 C 57.546875 -70.1875 57.40625 -71.273438 57.125 -71.921875 C 56.851562 -72.578125 56.394531 -72.90625 55.75 -72.90625 C 54.332031 -72.90625 53.160156 -71.816406 52.234375 -69.640625 C 51.304688 -67.460938 50.84375 -65.007812 50.84375 -62.28125 C 50.84375 -59.769531 50.921875 -57.695312 51.078125 -56.0625 C 51.242188 -54.4375 51.65625 -52.804688 52.3125 -51.171875 C 49.144531 -51.929688 46.800781 -53.425781 45.28125 -55.65625 C 43.757812 -57.894531 43 -60.757812 43 -64.25 C 43 -69.257812 44.492188 -73.34375 47.484375 -76.5 C 50.484375 -79.664062 54.160156 -81.25 58.515625 -81.25 C 62.003906 -81.25 64.753906 -80.128906 66.765625 -77.890625 C 68.785156 -75.660156 69.796875 -72.421875 69.796875 -68.171875 C 69.796875 -64.785156 69.195312 -60.910156 68 -56.546875 C 66.800781 -52.191406 65.003906 -46.421875 62.609375 -39.234375 C 60.097656 -31.816406 58.050781 -25.273438 56.46875 -19.609375 C 54.894531 -13.941406 53.835938 -8.441406 53.296875 -3.109375 C 51.765625 -2.015625 49.253906 -1.164062 45.765625 -0.5625 C 42.285156 0.03125 39.019531 0.328125 35.96875 0.328125 Z M 35.96875 0.328125 "/></g></g></g><g fill="#ffffff" fill-opacity="1"><g transform="translate(650.862255, 1177.945406)"><g><path d="M 46.921875 -80.09375 C 51.597656 -80.09375 56.414062 -78.972656 61.375 -76.734375 C 66.34375 -74.503906 70.347656 -71.78125 73.390625 -68.5625 C 76.441406 -65.351562 77.753906 -62.390625 77.328125 -59.671875 L 72.90625 -36.9375 C 69.414062 -19.5 67.019531 -7.1875 65.71875 0 L 51 0 C 53.175781 -11.988281 55.46875 -23.757812 57.875 -35.3125 L 62.28125 -58.6875 C 62.5 -59.882812 62.007812 -61.515625 60.8125 -63.578125 C 59.613281 -65.648438 57.597656 -67.503906 54.765625 -69.140625 C 51.929688 -70.773438 48.332031 -71.59375 43.96875 -71.59375 C 37.21875 -71.59375 31.929688 -69.410156 28.109375 -65.046875 C 24.296875 -60.691406 22.390625 -54.101562 22.390625 -45.28125 L 22.5625 -35.46875 L 22.890625 -22.390625 C 22.890625 -19.554688 22.832031 -17.429688 22.71875 -16.015625 C 24.6875 -19.179688 28.066406 -23.160156 32.859375 -27.953125 C 36.566406 -31.660156 39.234375 -34.738281 40.859375 -37.1875 C 42.492188 -39.644531 43.3125 -42.453125 43.3125 -45.609375 C 43.3125 -48.222656 42.601562 -49.53125 41.1875 -49.53125 C 39.988281 -49.53125 38.875 -48.628906 37.84375 -46.828125 C 36.8125 -45.035156 36.019531 -42.722656 35.46875 -39.890625 C 35.03125 -36.835938 34.867188 -34.328125 34.984375 -32.359375 C 33.453125 -32.796875 32.222656 -33.773438 31.296875 -35.296875 C 30.378906 -36.828125 29.921875 -38.789062 29.921875 -41.1875 C 29.921875 -45.332031 31.171875 -48.957031 33.671875 -52.0625 C 36.179688 -55.164062 39.34375 -56.71875 43.15625 -56.71875 C 45.769531 -56.71875 47.921875 -55.875 49.609375 -54.1875 C 51.296875 -52.5 52.140625 -49.910156 52.140625 -46.421875 C 52.140625 -42.390625 51.078125 -38.738281 48.953125 -35.46875 C 46.828125 -32.195312 43.53125 -28.164062 39.0625 -23.375 C 34.707031 -18.6875 31.382812 -14.679688 29.09375 -11.359375 C 26.8125 -8.035156 25.285156 -4.25 24.515625 0 C 23.535156 0.320312 21.191406 0.484375 17.484375 0.484375 C 12.585938 0.484375 9.375 0.320312 7.84375 0 C 8.820312 -3.59375 9.582031 -6.722656 10.125 -9.390625 C 10.675781 -12.066406 10.953125 -14.820312 10.953125 -17.65625 C 10.953125 -21.6875 10.351562 -27.40625 9.15625 -34.8125 C 9.039062 -36.125 8.765625 -38.414062 8.328125 -41.6875 C 7.898438 -44.957031 7.6875 -47.519531 7.6875 -49.375 C 7.6875 -56.238281 9.972656 -61.984375 14.546875 -66.609375 C 19.128906 -71.242188 24.5 -74.648438 30.65625 -76.828125 C 36.8125 -79.003906 42.234375 -80.09375 46.921875 -80.09375 Z M 46.921875 -80.09375 "/></g></g></g><g fill="#ffffff" fill-opacity="1"><g transform="translate(734.558883, 1177.945406)"><g><path d="M 73.390625 -181.609375 C 81.242188 -173.765625 85.171875 -164.554688 85.171875 -153.984375 C 85.171875 -142.546875 81.082031 -132.140625 72.90625 -122.765625 C 64.726562 -113.390625 53.9375 -106.03125 40.53125 -100.6875 C 27.132812 -95.351562 12.914062 -92.6875 -2.125 -92.6875 C -8.113281 -92.6875 -13.890625 -93.175781 -19.453125 -94.15625 L -20.4375 -99.546875 C -15.75 -100.535156 -11.441406 -102.0625 -7.515625 -104.125 C -3.378906 -106.3125 -0.46875 -108.765625 1.21875 -111.484375 C 2.914062 -114.210938 3.765625 -117.753906 3.765625 -122.109375 C 3.765625 -127.015625 2.726562 -129.46875 0.65625 -129.46875 C -0.539062 -129.46875 -1.410156 -128.785156 -1.953125 -127.421875 C -2.503906 -126.054688 -2.78125 -124.285156 -2.78125 -122.109375 C -2.78125 -118.179688 -2.125 -114.75 -0.8125 -111.8125 C -3.539062 -112.25 -5.691406 -113.773438 -7.265625 -116.390625 C -8.847656 -119.003906 -9.640625 -121.726562 -9.640625 -124.5625 C -9.640625 -127.71875 -8.601562 -130.550781 -6.53125 -133.0625 C -4.46875 -135.570312 -1.800781 -136.828125 1.46875 -136.828125 C 4.738281 -136.828125 7.378906 -135.4375 9.390625 -132.65625 C 11.410156 -129.875 12.421875 -126.359375 12.421875 -122.109375 C 12.421875 -116.984375 11.003906 -112.515625 8.171875 -108.703125 C 5.335938 -104.890625 1.632812 -101.894531 -2.9375 -99.71875 C 18.414062 -100.800781 36.503906 -107.117188 51.328125 -118.671875 C 66.148438 -130.222656 73.5625 -149.460938 73.5625 -176.390625 Z M 73.390625 -181.609375 "/></g></g></g><g fill="#ffffff" fill-opacity="1"><g transform="translate(737.664836, 1177.945406)"><g><path d="M 36.296875 0.65625 C 32.253906 0.65625 29.171875 -0.488281 27.046875 -2.78125 C 24.921875 -5.070312 23.859375 -8.234375 23.859375 -12.265625 C 23.859375 -16.835938 25.054688 -20.726562 27.453125 -23.9375 C 29.859375 -27.15625 32.804688 -28.765625 36.296875 -28.765625 C 37.378906 -28.765625 38.46875 -28.601562 39.5625 -28.28125 C 37.269531 -26.320312 35.492188 -23.894531 34.234375 -21 C 32.984375 -18.113281 32.359375 -15.203125 32.359375 -12.265625 C 32.359375 -10.734375 32.578125 -9.585938 33.015625 -8.828125 C 33.453125 -8.066406 34.160156 -7.6875 35.140625 -7.6875 C 36.773438 -7.6875 38.03125 -8.640625 38.90625 -10.546875 C 39.78125 -12.453125 40.597656 -15.3125 41.359375 -19.125 C 43.429688 -28.9375 45.117188 -36.675781 46.421875 -42.34375 C 47.734375 -48.007812 49.53125 -54.382812 51.8125 -61.46875 C 52.03125 -62.664062 51.429688 -64 50.015625 -65.46875 C 48.597656 -66.9375 46.9375 -68.242188 45.03125 -69.390625 C 43.125 -70.535156 41.789062 -71.109375 41.03125 -71.109375 C 34.707031 -71.109375 29.117188 -68.628906 24.265625 -63.671875 C 19.421875 -58.710938 16.179688 -51.710938 14.546875 -42.671875 C 13.671875 -37.648438 13.070312 -31.816406 12.75 -25.171875 L 11.9375 -25.984375 C 11.601562 -26.859375 10.921875 -27.976562 9.890625 -29.34375 C 8.859375 -30.707031 8.234375 -31.550781 8.015625 -31.875 C 5.285156 -34.925781 3.8125 -37.269531 3.59375 -38.90625 C 4.132812 -44.351562 4.515625 -47.675781 4.734375 -48.875 C 6.046875 -55.414062 8.71875 -61.03125 12.75 -65.71875 C 16.78125 -70.40625 21.4375 -73.972656 26.71875 -76.421875 C 32.007812 -78.867188 37.160156 -80.09375 42.171875 -80.09375 C 47.398438 -80.09375 51.8125 -79.003906 55.40625 -76.828125 C 59.007812 -74.648438 61.679688 -72.144531 63.421875 -69.3125 C 65.171875 -66.476562 66.046875 -64.242188 66.046875 -62.609375 C 62.554688 -52.578125 59.335938 -40.476562 56.390625 -26.3125 L 54.921875 -19.78125 C 53.617188 -14.21875 51.6875 -9.421875 49.125 -5.390625 C 46.5625 -1.359375 42.285156 0.65625 36.296875 0.65625 Z M 36.296875 0.65625 "/></g></g></g><g fill="#ffffff" fill-opacity="1"><g transform="translate(809.918575, 1177.945406)"><g><path d="M 80.265625 -79.28125 C 79.503906 -75.144531 77.757812 -67.40625 75.03125 -56.0625 C 72.957031 -47.78125 71.40625 -41 70.375 -35.71875 C 69.34375 -30.4375 68.828125 -25.671875 68.828125 -21.421875 C 68.828125 -19.128906 68.988281 -17.382812 69.3125 -16.1875 C 64.300781 -11.0625 58.632812 -6.972656 52.3125 -3.921875 C 45.988281 -0.867188 39.882812 0.65625 34 0.65625 C 29.425781 0.65625 25.015625 -0.238281 20.765625 -2.03125 C 16.515625 -3.832031 13.050781 -6.3125 10.375 -9.46875 C 7.707031 -12.632812 6.375 -16.125 6.375 -19.9375 C 6.375 -23.757812 7.679688 -27.492188 10.296875 -31.140625 C 12.910156 -34.785156 16.34375 -37.425781 20.59375 -39.0625 C 17.757812 -40.695312 15.578125 -43.015625 14.046875 -46.015625 C 12.523438 -49.015625 11.765625 -52.472656 11.765625 -56.390625 C 11.765625 -60.972656 12.800781 -65.085938 14.875 -68.734375 C 16.945312 -72.390625 19.671875 -75.222656 23.046875 -77.234375 C 26.421875 -79.253906 29.910156 -80.265625 33.515625 -80.265625 C 36.453125 -80.265625 38.789062 -79.554688 40.53125 -78.140625 C 42.28125 -76.722656 43.15625 -74.597656 43.15625 -71.765625 C 43.15625 -69.148438 42.414062 -66.535156 40.9375 -63.921875 C 39.46875 -61.304688 37.453125 -59.179688 34.890625 -57.546875 C 32.335938 -55.910156 29.585938 -55.09375 26.640625 -55.09375 C 28.710938 -57.59375 30.535156 -60.367188 32.109375 -63.421875 C 33.691406 -66.472656 34.484375 -69.035156 34.484375 -71.109375 C 34.484375 -72.847656 33.832031 -73.71875 32.53125 -73.71875 C 31 -73.71875 29.550781 -72.570312 28.1875 -70.28125 C 26.832031 -68 25.769531 -65.304688 25 -62.203125 C 24.238281 -59.097656 23.859375 -56.398438 23.859375 -54.109375 C 23.859375 -47.347656 27.835938 -43.96875 35.796875 -43.96875 C 40.597656 -43.96875 44.46875 -45.0625 47.40625 -47.25 C 47.726562 -46.15625 47.890625 -45.117188 47.890625 -44.140625 C 47.890625 -41.410156 46.9375 -39.144531 45.03125 -37.34375 C 43.125 -35.550781 40.703125 -34.65625 37.765625 -34.65625 C 36.785156 -34.65625 35.503906 -34.789062 33.921875 -35.0625 C 32.335938 -35.332031 31.273438 -35.46875 30.734375 -35.46875 C 27.785156 -35.46875 25.492188 -33.804688 23.859375 -30.484375 C 22.234375 -27.160156 21.421875 -23.972656 21.421875 -20.921875 C 21.421875 -17.109375 22.890625 -13.945312 25.828125 -11.4375 C 28.765625 -8.9375 31.867188 -7.6875 35.140625 -7.6875 C 38.085938 -7.6875 41.578125 -8.664062 45.609375 -10.625 C 49.640625 -12.582031 52.691406 -14.816406 54.765625 -17.328125 C 54.546875 -19.285156 54.4375 -20.972656 54.4375 -22.390625 C 54.4375 -26.421875 54.898438 -31.078125 55.828125 -36.359375 C 56.753906 -41.648438 58.25 -48.925781 60.3125 -58.1875 C 61.726562 -64.507812 63.203125 -71.539062 64.734375 -79.28125 Z M 80.265625 -79.28125 "/></g></g></g><g fill="#ffffff" fill-opacity="1"><g transform="translate(894.923, 1177.945406)"><g><path d="M 18.3125 1.3125 C 10.351562 1.3125 6.375 -3.535156 6.375 -13.234375 C 6.375 -17.160156 7 -21.710938 8.25 -26.890625 C 9.507812 -32.066406 11.445312 -39.175781 14.0625 -48.21875 C 18.96875 -64.675781 22.804688 -79.796875 25.578125 -93.578125 C 28.359375 -107.367188 29.75 -122.4375 29.75 -138.78125 C 29.75 -159.8125 26.914062 -170.328125 21.25 -170.328125 C 19.070312 -170.328125 17.03125 -168.851562 15.125 -165.90625 C 13.21875 -162.96875 11.660156 -158.859375 10.453125 -153.578125 C 9.253906 -148.296875 8.65625 -142.273438 8.65625 -135.515625 C 8.65625 -117.972656 12.800781 -103.097656 21.09375 -90.890625 C 16.625 -91.109375 13.132812 -91.539062 10.625 -92.1875 C 8.113281 -92.84375 6.039062 -94.375 4.40625 -96.78125 C 1.6875 -100.476562 -0.320312 -105.894531 -1.625 -113.03125 C -2.9375 -120.175781 -3.59375 -127.125 -3.59375 -133.875 C -3.59375 -141.832031 -2.640625 -149.1875 -0.734375 -155.9375 C 1.171875 -162.695312 4.003906 -168.09375 7.765625 -172.125 C 11.523438 -176.164062 16.078125 -178.1875 21.421875 -178.1875 C 29.585938 -178.1875 35.273438 -173.878906 38.484375 -165.265625 C 41.703125 -156.660156 43.3125 -146.472656 43.3125 -134.703125 C 43.3125 -122.597656 42.03125 -110.253906 39.46875 -97.671875 C 36.914062 -85.085938 33.296875 -70.347656 28.609375 -53.453125 C 25.660156 -42.773438 23.476562 -34.300781 22.0625 -28.03125 C 20.644531 -21.769531 19.9375 -16.457031 19.9375 -12.09375 C 19.9375 -10.351562 20.097656 -9.128906 20.421875 -8.421875 C 20.753906 -7.710938 21.300781 -7.359375 22.0625 -7.359375 C 23.8125 -7.359375 25.148438 -8.609375 26.078125 -11.109375 C 27.003906 -13.617188 27.46875 -16.238281 27.46875 -18.96875 C 27.46875 -22.34375 26.972656 -25.175781 25.984375 -27.46875 C 31.867188 -26.050781 34.8125 -22.34375 34.8125 -16.34375 C 34.8125 -11.65625 33.285156 -7.539062 30.234375 -4 C 27.191406 -0.457031 23.21875 1.3125 18.3125 1.3125 Z M 18.3125 1.3125 "/></g></g></g><g fill="#ffffff" fill-opacity="1"><g transform="translate(939.386828, 1177.945406)"><g><path d="M 49.53125 -80.921875 C 52.144531 -80.921875 55.578125 -79.800781 59.828125 -77.5625 C 64.078125 -75.332031 67.804688 -72.609375 71.015625 -69.390625 C 74.234375 -66.171875 75.84375 -63.09375 75.84375 -60.15625 C 75.84375 -59.175781 75.242188 -57.101562 74.046875 -53.9375 C 72.847656 -50.78125 71.429688 -47.238281 69.796875 -43.3125 C 66.421875 -34.925781 63.722656 -28.0625 61.703125 -22.71875 C 59.691406 -17.382812 57.921875 -11.9375 56.390625 -6.375 C 55.960938 -4.851562 55.75 -2.726562 55.75 0 C 54.757812 0.320312 53.253906 0.566406 51.234375 0.734375 C 49.222656 0.898438 47.566406 0.984375 46.265625 0.984375 C 44.296875 0.984375 42.332031 0.65625 40.375 0 C 41.03125 -2.507812 41.578125 -5.671875 42.015625 -9.484375 C 42.453125 -13.296875 42.671875 -16.566406 42.671875 -19.296875 C 42.671875 -26.484375 41.851562 -32.472656 40.21875 -37.265625 C 38.582031 -42.066406 36.507812 -44.46875 34 -44.46875 C 33.125 -44.46875 32.523438 -44.140625 32.203125 -43.484375 C 31.878906 -42.828125 31.71875 -41.738281 31.71875 -40.21875 C 31.71875 -37.601562 32.53125 -35.175781 34.15625 -32.9375 C 35.789062 -30.707031 37.8125 -28.882812 40.21875 -27.46875 C 39.125 -26.695312 37.597656 -26.3125 35.640625 -26.3125 C 32.691406 -26.3125 30.046875 -27.753906 27.703125 -30.640625 C 25.359375 -33.535156 24.1875 -36.726562 24.1875 -40.21875 C 24.1875 -43.914062 25.191406 -46.851562 27.203125 -49.03125 C 29.222656 -51.21875 32.035156 -52.3125 35.640625 -52.3125 C 37.816406 -52.3125 40.019531 -51.492188 42.25 -49.859375 C 44.488281 -48.222656 46.367188 -45.523438 47.890625 -41.765625 C 49.421875 -38.003906 50.1875 -33.070312 50.1875 -26.96875 L 50.1875 -26.3125 C 52.039062 -32.53125 54.382812 -39.289062 57.21875 -46.59375 C 59.832031 -53.675781 61.140625 -57.925781 61.140625 -59.34375 C 61.140625 -62.394531 59.910156 -65.28125 57.453125 -68 C 55.003906 -70.726562 52.09375 -72.253906 48.71875 -72.578125 C 42.613281 -72.578125 37.160156 -70.78125 32.359375 -67.1875 C 27.566406 -63.59375 23.804688 -58.90625 21.078125 -53.125 C 18.359375 -47.351562 17 -41.25 17 -34.8125 C 17 -27.945312 18.632812 -20.644531 21.90625 -12.90625 L 21.09375 -11.28125 C 20.65625 -11.5 20.132812 -11.796875 19.53125 -12.171875 C 18.9375 -12.554688 18.253906 -12.96875 17.484375 -13.40625 C 14.765625 -15.039062 12.640625 -16.375 11.109375 -17.40625 C 9.585938 -18.445312 8.445312 -19.617188 7.6875 -20.921875 C 6.375 -22.773438 5.363281 -25.28125 4.65625 -28.4375 C 3.945312 -31.601562 3.59375 -34.65625 3.59375 -37.59375 C 3.59375 -45.007812 5.878906 -52.039062 10.453125 -58.6875 C 15.035156 -65.332031 20.921875 -70.695312 28.109375 -74.78125 C 35.304688 -78.875 42.445312 -80.921875 49.53125 -80.921875 Z M 49.53125 -80.921875 "/></g></g></g><path fill="#ad873e" d="M 1219.550781 371.011719 C 1219.304688 371.132812 1185.859375 381.632812 1136.421875 367.226562 C 1120.796875 362.710938 1105.292969 360.023438 1090.402344 359.171875 L 1087.347656 359.046875 L 1088.8125 356.363281 C 1097.847656 340.128906 1111.152344 306.4375 1099.554688 262.855469 L 1098.824219 260.171875 L 1096.015625 260.050781 C 1089.300781 259.804688 1029.246094 259.195312 998.605469 301.917969 L 995.917969 305.582031 L 995.1875 301.066406 C 984.566406 236.734375 960.519531 182.535156 959.542969 180.214844 L 956.367188 173.136719 L 952.707031 179.972656 C 952.585938 180.214844 937.691406 207.070312 891.550781 230.265625 C 885.691406 233.195312 880.074219 236.613281 873.851562 241.007812 L 871.164062 242.839844 L 870.796875 239.542969 C 865.792969 190.347656 801.21875 147.746094 798.53125 145.914062 L 796.457031 144.570312 L 794.503906 146.28125 C 744.578125 178.628906 729.808594 205.484375 726.144531 222.332031 L 725.414062 225.625 L 722.972656 223.308594 C 702.707031 204.386719 688.671875 192.421875 688.058594 191.933594 L 685.984375 190.226562 L 683.664062 191.570312 C 683.542969 191.691406 663.28125 203.898438 636.789062 224.773438 L 634.347656 226.726562 L 633.738281 223.671875 C 631.296875 209.636719 618.96875 181.070312 564.402344 147.867188 L 562.328125 146.523438 L 560.375 147.988281 C 557.691406 149.820312 494.089844 194.375 490.550781 243.816406 L 490.308594 247.109375 L 487.621094 245.28125 C 481.152344 241.007812 475.535156 237.710938 469.675781 234.78125 C 422.925781 212.199219 407.179688 186.320312 407.054688 186.074219 L 403.148438 179.605469 L 400.21875 186.5625 C 399.367188 188.761719 378.246094 239.910156 368.847656 301.675781 L 368.480469 306.191406 L 365.796875 302.53125 C 331.738281 255.410156 267.898438 266.273438 267.285156 266.398438 L 264.84375 266.886719 L 264.234375 269.328125 C 253.25 313.636719 266.554688 349.160156 275.464844 366.496094 L 276.808594 368.9375 L 274 369.179688 C 259.351562 370.402344 244.214844 373.574219 228.957031 378.457031 C 180.371094 394.203125 146.316406 384.683594 145.949219 384.5625 L 139.234375 382.609375 L 141.066406 389.320312 C 142.289062 393.472656 172.070312 491.492188 290.722656 559.121094 C 310.867188 570.59375 333.449219 579.75 357.863281 585.976562 L 364.820312 587.804688 L 357.863281 589.636719 C 341.261719 594.152344 324.171875 601.722656 307.082031 612.34375 C 280.226562 629.066406 250.5625 631.140625 250.320312 631.140625 L 242.261719 631.628906 L 247.878906 637.488281 C 248.609375 638.222656 313.792969 704.871094 417.066406 704.871094 C 451.488281 704.871094 486.523438 697.179688 521.433594 682.042969 L 523.023438 681.433594 L 523.875 682.898438 C 529.613281 692.910156 538.160156 702.429688 549.144531 711.097656 L 550.609375 712.195312 L 550.609375 712.316406 C 550.976562 712.5625 551.464844 713.050781 552.074219 713.414062 C 584.300781 737.21875 630.6875 751.011719 679.757812 751.257812 L 682.078125 751.257812 C 723.460938 751.257812 823.191406 744.789062 855.785156 684.363281 L 856.636719 682.898438 L 858.226562 683.632812 C 892.28125 698.28125 926.339844 705.726562 959.542969 705.726562 C 959.542969 705.726562 959.542969 705.726562 959.664062 705.726562 C 1063.058594 705.726562 1126.777344 635.78125 1127.386719 635.046875 L 1132.515625 629.308594 L 1124.824219 628.820312 C 1124.582031 628.820312 1094.917969 626.746094 1068.0625 610.023438 C 1048.898438 598.183594 1029.855469 590.003906 1011.421875 585.851562 L 1004.707031 584.386719 L 1011.179688 582.3125 C 1034.980469 574.5 1058.050781 563.515625 1079.660156 549.84375 C 1195.136719 476.96875 1223.335938 380.042969 1224.433594 376.015625 L 1226.265625 369.179688 Z M 1219.550781 371.011719 " fill-opacity="1" fill-rule="nonzero"/><g clip-path="url(#2fab844705)"><path fill="#ffffff" d="M 1218.941406 369.300781 C 1218.574219 369.425781 1185.980469 379.800781 1136.910156 365.519531 C 1119.941406 360.636719 1104.5625 358.070312 1090.523438 357.339844 C 1099.191406 341.835938 1113.351562 307.167969 1101.386719 262.613281 L 1100.289062 258.585938 L 1096.136719 258.464844 C 1093.085938 258.339844 1029.121094 256.511719 997.140625 301.066406 C 986.519531 236.980469 962.960938 183.390625 961.375 179.851562 L 956.613281 169.351562 L 951.121094 179.605469 C 950.996094 179.851562 936.472656 206.21875 890.816406 229.167969 C 884.226562 232.460938 878.367188 236.003906 872.875 239.910156 C 867.625 189.980469 802.5625 147.011719 799.632812 145.058594 L 796.578125 142.617188 L 793.527344 144.570312 C 741.769531 178.140625 727.734375 206.09375 724.316406 221.964844 C 703.929688 202.921875 689.648438 190.835938 689.402344 190.59375 L 686.351562 187.90625 L 682.8125 189.980469 C 682.445312 190.226562 662.179688 202.433594 635.8125 223.308594 C 633.007812 207.558594 619.578125 179.117188 565.625 146.28125 L 562.449219 144.328125 L 559.398438 146.402344 C 556.46875 148.476562 492.503906 193.277344 488.84375 243.449219 C 483.347656 239.785156 477.367188 236.246094 470.652344 233.074219 C 424.511719 210.734375 409.007812 185.34375 408.886719 185.097656 L 403.148438 175.332031 L 398.753906 185.832031 C 397.289062 189.371094 376.660156 239.910156 367.261719 301.308594 C 332.472656 253.335938 267.53125 264.320312 266.921875 264.445312 L 263.257812 265.054688 L 262.402344 268.59375 C 251.050781 314.371094 265.578125 351.113281 273.757812 366.984375 C 259.960938 368.203125 244.949219 371.132812 228.347656 376.382812 C 180.007812 392.007812 146.804688 382.609375 146.4375 382.484375 L 136.550781 379.679688 L 139.480469 389.566406 C 140.699219 393.714844 170.605469 492.46875 289.992188 560.460938 C 311.71875 572.792969 334.546875 581.582031 357.496094 587.5625 C 343.335938 591.347656 326 598.304688 306.347656 610.511719 C 280.105469 626.867188 250.683594 628.945312 250.320312 628.945312 L 238.113281 629.796875 L 246.535156 638.585938 C 247.390625 639.441406 313.429688 706.457031 416.945312 706.457031 C 448.683594 706.457031 483.960938 700.109375 522.046875 683.753906 C 544.75 723.179688 608.105469 752.476562 679.636719 752.84375 C 680.371094 752.84375 681.222656 752.84375 682.078125 752.84375 C 726.511719 752.84375 824.535156 745.640625 857.371094 684.972656 C 894.480469 700.964844 928.660156 707.191406 959.421875 707.191406 C 1063.300781 707.191406 1127.753906 636.878906 1128.609375 635.902344 L 1136.421875 627.234375 L 1124.824219 626.503906 C 1124.582031 626.503906 1095.160156 624.425781 1068.792969 608.070312 C 1046.210938 594.03125 1026.804688 587.074219 1011.789062 583.65625 C 1034.25 576.210938 1057.320312 565.710938 1080.511719 551.0625 C 1196.601562 477.820312 1225.042969 380.289062 1226.140625 376.136719 L 1228.949219 365.882812 Z M 1091.5 269.691406 C 1101.875 314.738281 1082.953125 348.429688 1077.339844 357.09375 C 1053.535156 357.828125 1034.371094 363.808594 1019.480469 371.378906 C 1020.332031 370.644531 1021.066406 369.914062 1021.921875 369.179688 C 1029.246094 362.101562 1035.957031 354.53125 1042.0625 346.476562 C 1048.285156 338.539062 1053.535156 329.875 1058.175781 320.960938 C 1062.933594 312.171875 1066.109375 302.53125 1068.917969 293.007812 C 1065.253906 302.285156 1061.226562 311.320312 1055.734375 319.496094 C 1050.484375 327.796875 1044.503906 335.609375 1037.789062 342.8125 C 1031.199219 350.015625 1023.996094 356.605469 1016.304688 362.710938 C 1011.667969 366.371094 1006.785156 369.914062 1001.777344 373.207031 C 1002.753906 355.019531 1001.777344 336.710938 999.582031 318.765625 C 1020.945312 274.941406 1075.875 270.058594 1091.5 269.691406 Z M 895.945312 238.933594 C 928.78125 222.453125 946.601562 204.386719 955.027344 193.765625 C 968.332031 227.089844 1008.980469 341.105469 981.636719 423.257812 C 964.667969 474.160156 915.964844 523.597656 854.441406 552.164062 C 820.382812 568.03125 787.914062 574.746094 761.789062 571.9375 C 768.136719 569.984375 774.242188 567.785156 780.101562 565.46875 C 811.960938 560.097656 840.890625 546.667969 866.039062 527.871094 C 891.304688 508.949219 911.324219 483.679688 924.996094 455.726562 C 938.789062 427.652344 945.992188 397.011719 949.289062 366.25 C 952.585938 335.488281 951.363281 304.484375 947.824219 273.84375 C 950.386719 304.484375 950.632812 335.488281 946.480469 365.882812 C 942.332031 396.28125 934.273438 426.1875 919.992188 453.164062 C 905.832031 480.019531 885.8125 503.699219 861.03125 521.035156 C 847.238281 530.800781 831.980469 538.855469 816.109375 544.714844 C 824.289062 538.367188 831.492188 531.289062 837.71875 523.476562 C 840.035156 521.644531 841.136719 520.425781 842.84375 518.960938 L 847.972656 513.832031 C 851.144531 510.292969 854.441406 506.753906 857.371094 502.96875 C 863.472656 495.644531 868.96875 487.832031 874.214844 479.898438 C 884.46875 463.90625 892.769531 446.695312 898.753906 428.75 C 904.976562 410.804688 908.027344 392.007812 908.515625 373.207031 C 909.617188 354.410156 906.078125 335.734375 901.925781 317.542969 C 905.097656 335.855469 907.664062 354.53125 905.710938 372.964844 C 904.246094 391.398438 900.339844 409.707031 893.503906 426.796875 C 886.789062 444.007812 878 460.242188 867.257812 475.136719 C 864.207031 479.285156 861.15625 483.316406 857.980469 487.34375 C 874.828125 439.246094 863.597656 378.703125 828.195312 332.679688 C 828.074219 332.4375 827.828125 332.191406 827.707031 332.070312 C 829.171875 320.472656 840.523438 266.640625 895.945312 238.933594 Z M 796.457031 156.167969 C 809.886719 165.691406 863.839844 206.339844 861.765625 247.964844 C 833.199219 272.621094 822.09375 303.140625 818.0625 320.109375 C 817.210938 319.132812 816.476562 318.15625 815.621094 317.179688 C 816.476562 307.65625 816.355469 298.625 815.746094 289.46875 C 815.132812 279.457031 813.914062 269.449219 812.328125 259.5625 C 810.496094 249.796875 808.542969 240.03125 805.734375 230.386719 C 803.171875 220.742188 799.875 211.464844 796.457031 202.1875 C 799.019531 211.710938 801.339844 221.355469 802.925781 230.996094 C 804.757812 240.640625 805.855469 250.40625 806.589844 260.171875 C 807.320312 269.9375 807.566406 279.703125 807.199219 289.46875 C 806.957031 294.960938 806.589844 300.453125 805.980469 305.824219 C 782.296875 278.359375 756.175781 252.117188 734.570312 231.609375 C 734.324219 225.382812 736.277344 196.207031 796.457031 156.167969 Z M 685.128906 201.945312 C 700.753906 215.496094 771.433594 277.992188 818.796875 339.394531 C 854.683594 385.902344 864.207031 448.160156 842.601562 494.058594 C 831.859375 516.761719 810.617188 542.761719 768.382812 557.898438 C 774.972656 546.304688 779.976562 534.339844 784.128906 521.765625 C 789.742188 504.433594 793.40625 486.367188 794.75 468.300781 C 795.113281 463.785156 795.113281 459.265625 795.238281 454.75 L 795.480469 447.914062 L 795.113281 441.078125 L 794.382812 427.527344 L 792.550781 414.101562 C 791.695312 405.066406 789.132812 396.402344 787.425781 387.613281 C 785.226562 378.945312 782.296875 370.402344 779.855469 361.855469 C 781.929688 370.644531 784.371094 379.191406 786.082031 387.980469 C 787.300781 396.890625 789.5 405.554688 789.742188 414.46875 L 790.84375 427.773438 L 790.84375 447.792969 L 790.355469 454.382812 C 789.988281 458.777344 789.742188 463.296875 789.132812 467.566406 C 786.9375 485.144531 782.417969 502.359375 776.195312 518.714844 C 770.089844 534.460938 761.914062 549.964844 752.023438 562.78125 C 745.1875 564.492188 737.863281 566.078125 730.175781 567.296875 C 737.375 550.332031 741.769531 532.996094 745.066406 515.175781 C 748.972656 494.058594 750.4375 472.695312 750.558594 451.453125 C 750.195312 440.835938 750.070312 430.214844 748.972656 419.59375 C 748.242188 408.972656 746.652344 398.476562 745.066406 387.980469 C 743.601562 377.480469 740.917969 367.226562 738.839844 356.851562 C 736.277344 346.597656 733.347656 336.34375 730.664062 326.210938 C 732.980469 336.585938 735.421875 346.839844 737.5 357.21875 C 739.085938 367.714844 741.28125 377.96875 742.257812 388.46875 C 743.359375 398.964844 744.578125 409.460938 744.824219 419.960938 C 745.554688 430.457031 745.1875 440.957031 745.066406 451.453125 C 744.089844 472.449219 741.648438 493.324219 737.011719 513.589844 C 732.492188 532.753906 726.390625 552.285156 717.480469 569.007812 C 711.007812 569.738281 704.296875 570.105469 697.09375 570.472656 C 697.09375 559.609375 696.484375 549.476562 695.996094 538.980469 L 694.042969 501.746094 L 689.890625 427.40625 L 681.835938 278.726562 L 684.277344 427.652344 L 685.617188 502.113281 L 686.105469 539.34375 C 686.105469 549.71875 686.351562 560.585938 685.984375 570.714844 C 681.222656 570.59375 675.121094 570.351562 668.164062 569.617188 C 658.640625 552.648438 651.195312 533.730469 645.335938 514.6875 C 639.230469 494.546875 634.59375 473.914062 632.273438 452.917969 C 629.953125 431.921875 628.734375 410.683594 630.199219 389.566406 C 630.441406 378.945312 632.03125 368.449219 633.128906 357.828125 C 634.472656 347.328125 636.914062 336.953125 638.742188 326.457031 C 636.425781 336.832031 633.617188 347.085938 631.785156 357.707031 C 630.199219 368.203125 628.125 378.703125 627.390625 389.445312 C 624.949219 410.683594 625.195312 432.167969 626.660156 453.53125 C 628.125 475.015625 631.90625 496.253906 637.15625 517.128906 C 641.671875 534.585938 647.289062 551.429688 654.855469 568.03125 C 648.632812 567.054688 642.039062 565.832031 635.082031 564.125 C 622.507812 552.527344 611.402344 538.125 602.367188 522.988281 C 593.089844 507.117188 585.644531 490.027344 581.128906 472.207031 C 576.734375 454.261719 573.804688 435.707031 574.65625 417.152344 C 574.292969 407.753906 576 398.597656 576.855469 389.320312 C 578.074219 380.042969 580.515625 371.011719 582.347656 361.734375 C 580.152344 370.765625 577.222656 379.800781 575.511719 389.078125 C 574.167969 398.355469 572.09375 407.632812 571.972656 417.03125 C 570.261719 435.828125 572.09375 454.871094 575.757812 473.550781 C 579.417969 492.226562 586.253906 510.292969 595.164062 527.261719 C 600.902344 538.125 607.496094 548.5 615.0625 558.265625 C 571.851562 542.882812 526.5625 509.070312 520.09375 435.953125 C 509.226562 319.496094 660.226562 217.8125 685.128906 201.945312 Z M 562.9375 158 C 623.605469 195.964844 625.558594 225.261719 625.070312 231.972656 C 614.207031 240.886719 602.734375 251.140625 591.503906 262.371094 C 578.074219 275.550781 566.355469 288.980469 556.101562 302.285156 C 555.613281 297.648438 555.25 292.765625 555.003906 288.125 C 554.636719 278.847656 554.761719 269.449219 555.371094 260.050781 C 556.101562 250.652344 557.078125 241.25 558.542969 231.972656 C 560.007812 222.574219 561.960938 213.296875 564.160156 204.140625 C 561.109375 213.175781 558.179688 222.207031 555.738281 231.484375 C 553.296875 240.761719 551.34375 250.039062 549.632812 259.5625 C 548.046875 269.082031 546.949219 278.605469 546.335938 288.246094 C 545.847656 297.160156 545.726562 305.824219 546.582031 315.226562 C 545.238281 317.300781 543.773438 319.253906 542.554688 321.328125 C 538.769531 303.996094 528.394531 275.675781 500.074219 252.238281 C 496.65625 210.246094 549.632812 167.886719 562.9375 158 Z M 405.589844 199.625 C 414.257812 209.878906 432.691406 227.335938 465.648438 243.328125 C 526.929688 272.988281 532.789062 326.945312 533.398438 336.097656 C 513.988281 370.402344 505.445312 404.335938 508.25 436.5625 C 509.59375 451.820312 512.523438 465.371094 516.675781 477.578125 C 511.179688 471.71875 506.296875 465.371094 501.539062 458.777344 C 491.527344 444.742188 483.59375 429.238281 477.734375 412.878906 C 474.4375 404.824219 472.730469 396.28125 470.53125 387.855469 C 469.1875 379.3125 467.359375 370.644531 467.234375 361.976562 C 465.648438 344.523438 467.722656 326.945312 470.289062 309.609375 C 466.746094 326.820312 463.695312 344.398438 464.304688 362.101562 C 464.0625 371.011719 465.40625 379.800781 466.257812 388.589844 C 467.96875 397.257812 469.3125 406.167969 472.242188 414.589844 C 477.367188 431.679688 484.691406 448.160156 494.335938 463.417969 C 499.21875 470.984375 504.34375 478.308594 510.203125 485.269531 C 513.011719 488.808594 516.0625 492.105469 519.238281 495.398438 L 524.121094 500.160156 C 525.585938 501.503906 526.683594 502.480469 528.515625 503.945312 C 534.863281 514.6875 542.1875 523.964844 550.367188 532.019531 C 535.71875 524.820312 521.800781 515.664062 509.105469 505.410156 C 486.035156 486.609375 467.234375 462.683594 453.441406 436.074219 C 446.484375 422.769531 441.113281 408.609375 436.597656 394.328125 C 432.324219 379.921875 428.90625 365.152344 426.832031 350.136719 C 422.316406 320.230469 421.828125 289.710938 424.023438 259.441406 C 420.851562 289.589844 420.363281 320.230469 424.023438 350.503906 C 425.609375 365.640625 428.785156 380.65625 432.570312 395.425781 C 436.839844 410.074219 441.722656 424.597656 448.4375 438.515625 C 461.742188 466.226562 480.296875 491.617188 503.734375 511.878906 C 526.804688 531.777344 553.171875 547.523438 583.324219 556.191406 C 592.96875 561.5625 602.976562 565.710938 612.742188 569.128906 C 585.398438 574.132812 549.753906 568.398438 513.378906 552.773438 C 452.34375 526.40625 403.273438 479.285156 385.328125 429.847656 C 355.664062 348.429688 393.382812 233.074219 405.589844 199.625 Z M 272.535156 275.1875 C 287.0625 273.597656 340.773438 271.402344 364.941406 319.253906 C 362.746094 339.515625 362.011719 360.511719 363.722656 381.144531 C 359.570312 377.726562 355.421875 374.183594 351.515625 370.523438 C 344.3125 363.6875 337.476562 356.484375 331.128906 348.792969 C 324.660156 341.226562 318.921875 333.046875 313.796875 324.503906 C 308.425781 316.078125 304.273438 306.925781 300.488281 297.523438 C 303.417969 307.167969 306.714844 316.8125 311.355469 325.84375 C 315.75 335 320.875 343.789062 326.734375 352.210938 C 332.472656 360.636719 338.820312 368.691406 345.53125 376.382812 C 346.996094 377.96875 348.460938 379.554688 349.925781 381.144531 C 334.058594 372.84375 313.183594 366.371094 286.574219 366.496094 C 280.835938 356.851562 262.648438 320.960938 272.535156 275.1875 Z M 231.886719 387.367188 C 286.085938 369.914062 334.179688 376.992188 367.261719 407.144531 C 369.09375 416.296875 371.535156 425.210938 374.585938 433.875 C 393.019531 484.65625 441.96875 532.875 503.125 560.828125 C 492.503906 559.121094 481.882812 556.800781 471.628906 553.871094 C 447.949219 547.28125 425.246094 537.269531 404.371094 524.332031 L 396.4375 519.570312 C 393.871094 517.859375 391.429688 515.90625 388.988281 514.078125 C 384.105469 510.292969 378.980469 506.875 374.339844 502.847656 L 360.667969 490.273438 L 357.25 487.097656 L 354.199219 483.558594 L 348.097656 476.601562 C 339.429688 467.691406 332.714844 457.191406 325.511719 447.058594 C 321.730469 442.175781 319.164062 436.441406 315.992188 431.070312 L 306.960938 414.710938 L 315.257812 431.433594 C 318.1875 436.929688 320.507812 442.789062 324.171875 447.914062 C 331.007812 458.414062 337.355469 469.15625 345.777344 478.554688 L 351.757812 485.878906 L 354.6875 489.539062 L 357.984375 492.835938 L 371.410156 506.140625 C 375.929688 510.535156 381.054688 514.199219 385.9375 518.226562 C 388.378906 520.179688 390.820312 522.253906 393.261719 524.085938 L 401.074219 529.335938 C 421.949219 543.496094 444.898438 554.601562 468.945312 562.292969 L 487.132812 567.542969 C 493.359375 568.886719 499.460938 570.472656 505.6875 571.570312 C 517.773438 573.769531 529.859375 575.355469 542.554688 575.722656 C 544.871094 576.332031 547.191406 576.941406 549.511719 577.550781 C 527.90625 581.945312 495.191406 586.953125 457.714844 587.5625 C 430.980469 585.242188 399.367188 577.550781 361.035156 526.40625 C 330.394531 485.632812 294.753906 465.613281 252.148438 465.492188 C 205.152344 465.25 175 436.929688 174.636719 436.5625 L 174.390625 436.929688 C 163.40625 419.472656 156.8125 404.824219 153.273438 396.035156 C 167.921875 397.621094 195.875 398.964844 231.886719 387.367188 Z M 192.089844 461.34375 C 206.738281 469.03125 227.371094 476.355469 252.515625 476.480469 C 291.335938 476.601562 324.046875 495.15625 352.367188 532.875 C 372.265625 559.484375 390.699219 575.476562 408.886719 585.121094 C 370.921875 581.214844 331.371094 571.203125 295.605469 550.820312 C 247.632812 523.355469 214.429688 490.515625 192.089844 461.34375 Z M 263.503906 638.710938 C 275.464844 636.511719 294.386719 631.386719 312.332031 620.277344 C 353.222656 594.886719 382.886719 594.152344 391.917969 594.640625 C 412.425781 597.695312 432.691406 598.914062 451.855469 598.914062 C 482.738281 598.914062 510.816406 595.742188 532.789062 592.078125 C 522.777344 598.304688 512.15625 604.042969 501.539062 609.167969 C 484.449219 617.347656 466.746094 624.671875 448.558594 630.285156 C 430.371094 635.902344 411.816406 640.664062 392.894531 643.59375 C 374.097656 647.011719 354.933594 648.351562 335.644531 649.207031 C 354.808594 649.328125 374.097656 648.839844 393.261719 646.398438 C 412.425781 644.445312 431.347656 640.417969 450.148438 635.65625 C 468.945312 630.898438 487.253906 624.425781 505.078125 616.859375 C 514.597656 612.832031 523.875 608.4375 532.910156 603.554688 C 520.457031 616.859375 511.425781 634.679688 513.621094 657.753906 C 514.109375 663.125 515.453125 668.371094 517.40625 673.378906 C 388.011719 729.164062 292.066406 662.636719 263.503906 638.710938 Z M 679.882812 741.613281 C 653.148438 741.492188 627.511719 736.976562 604.929688 729.40625 C 627.878906 729.039062 657.175781 721.59375 691.601562 698.035156 C 701.855469 705.605469 733.714844 726.476562 777.292969 729.40625 C 741.648438 740.148438 702.464844 741.859375 679.882812 741.613281 Z M 808.175781 716.710938 C 743.96875 726.234375 695.871094 686.925781 695.382812 686.5625 L 691.964844 683.753906 L 688.425781 686.316406 C 613.71875 739.417969 565.867188 711.339844 556.589844 704.871094 C 538.28125 691.078125 526.5625 674.476562 524.851562 656.777344 C 519.96875 607.09375 579.050781 585.488281 588.207031 582.433594 C 589.429688 582.433594 590.648438 582.433594 591.871094 582.433594 C 596.507812 582.433594 601.148438 582.191406 605.542969 581.703125 C 604.808594 582.433594 604.078125 583.046875 603.222656 583.777344 C 595.289062 591.222656 588.207031 599.648438 582.46875 608.800781 C 576.609375 617.835938 572.09375 627.84375 569.285156 638.222656 C 566.113281 648.476562 565.378906 659.21875 565.136719 669.835938 C 566.355469 659.339844 567.945312 648.839844 571.972656 639.199219 C 575.632812 629.433594 580.761719 620.277344 587.109375 612.097656 C 593.335938 603.917969 600.660156 596.59375 608.835938 590.246094 C 616.40625 584.386719 624.949219 579.015625 633.25 575.109375 C 635.691406 575.722656 638.011719 576.210938 640.332031 576.699219 C 635.082031 582.558594 630.929688 588.90625 627.023438 595.496094 C 621.410156 605.140625 617.015625 615.515625 613.597656 626.015625 C 610.300781 636.632812 608.105469 647.375 606.761719 658.242188 C 605.90625 663.613281 605.90625 669.105469 605.417969 674.597656 L 605.296875 690.957031 L 606.882812 674.71875 C 607.859375 669.347656 608.347656 663.976562 609.691406 658.730469 C 611.886719 648.230469 615.0625 637.855469 619.089844 627.96875 C 623.242188 618.078125 628.246094 608.679688 634.347656 600.136719 C 639.964844 592.324219 646.679688 584.632812 653.757812 579.140625 C 658.152344 579.75 662.304688 580.359375 666.210938 580.726562 C 662.546875 587.195312 659.617188 593.789062 656.933594 600.5 C 653.148438 610.144531 650.460938 620.277344 648.753906 630.410156 C 646.921875 640.539062 646.554688 650.917969 647.410156 661.171875 C 647.898438 671.425781 650.828125 681.3125 653.878906 690.957031 C 651.683594 681.066406 649.851562 671.179688 650.21875 661.171875 C 650.339844 651.160156 651.5625 641.273438 654.246094 631.75 C 656.808594 622.230469 660.351562 612.953125 664.746094 604.042969 C 668.652344 596.230469 673.410156 588.417969 678.539062 581.703125 C 681.347656 581.824219 683.910156 581.945312 686.230469 581.945312 C 689.523438 614.660156 691.722656 647.742188 692.820312 680.824219 C 695.261719 647.988281 696.605469 615.027344 696.972656 581.945312 C 701 581.824219 704.90625 581.582031 708.8125 581.335938 C 714.914062 587.195312 720.53125 594.765625 724.925781 602.578125 C 729.6875 611 733.46875 620.15625 735.546875 629.675781 C 737.621094 639.199219 738.839844 649.207031 738.109375 659.09375 C 738.109375 664.101562 737.011719 668.984375 736.398438 673.988281 C 735.546875 678.871094 733.957031 683.753906 732.859375 688.636719 C 734.445312 683.875 736.523438 679.238281 737.863281 674.355469 C 738.964844 669.472656 740.550781 664.589844 741.039062 659.460938 C 742.746094 649.328125 742.503906 638.953125 741.28125 628.699219 C 739.941406 618.445312 736.886719 608.3125 732.617188 598.792969 C 729.6875 592.199219 726.144531 586.097656 721.996094 580.117188 C 726.878906 579.503906 731.761719 578.773438 736.398438 577.917969 C 743.480469 583.898438 750.195312 591.589844 755.441406 599.648438 C 761.421875 608.558594 766.183594 618.324219 769.113281 628.699219 C 772.164062 639.074219 773.996094 649.941406 773.628906 660.925781 C 773.875 666.417969 773.019531 671.914062 772.53125 677.40625 C 771.800781 682.898438 770.335938 688.269531 769.234375 693.640625 C 770.699219 688.269531 772.652344 683.019531 773.875 677.648438 C 774.851562 672.15625 776.316406 666.664062 776.4375 661.046875 C 777.78125 649.816406 776.804688 638.464844 774.484375 627.355469 C 772.289062 616.125 768.136719 605.382812 762.523438 595.253906 C 759.957031 590.734375 757.273438 586.339844 754.222656 582.191406 C 760.203125 583.167969 766.550781 583.65625 773.140625 583.777344 C 779.976562 588.90625 786.449219 595.496094 791.941406 602.453125 C 797.800781 610.023438 802.5625 618.566406 805.734375 627.722656 C 809.03125 636.878906 810.738281 646.644531 810.375 656.53125 C 810.496094 666.417969 807.933594 676.183594 805.125 685.828125 C 808.910156 676.550781 812.328125 666.90625 813.179688 656.777344 C 814.523438 646.644531 813.792969 636.269531 811.226562 626.257812 C 808.785156 616.25 804.515625 606.605469 798.898438 597.695312 C 795.601562 592.566406 792.0625 587.683594 788.035156 583.167969 C 790.230469 582.921875 792.308594 582.679688 794.503906 582.433594 C 805.492188 588.417969 870.1875 626.503906 851.023438 672.890625 C 842.722656 692.421875 827.097656 706.578125 808.175781 716.710938 Z M 980.90625 592.324219 C 984.445312 591.835938 1016.425781 588.78125 1062.933594 617.714844 C 1081.246094 629.066406 1100.53125 634.070312 1112.496094 636.269531 C 1085.761719 661.046875 993.964844 731.480469 862.375 674.71875 C 872.75 646.644531 859.566406 622.351562 842.355469 604.285156 C 846.996094 606.726562 851.632812 609.046875 856.394531 611.242188 C 875.4375 620.277344 895.210938 627.84375 915.476562 633.460938 C 935.617188 639.199219 956.367188 643.46875 977.242188 645.546875 C 997.996094 648.109375 1019.113281 647.742188 1039.863281 646.765625 C 1018.992188 646.886719 998.117188 646.277344 977.609375 642.738281 C 956.980469 639.808594 936.835938 634.679688 917.183594 628.089844 C 897.53125 621.621094 878.488281 613.320312 860.300781 603.675781 C 852.488281 599.523438 844.917969 595.128906 837.351562 590.492188 C 856.394531 595.007812 882.394531 599.28125 912.789062 599.402344 L 912.789062 599.523438 C 913.035156 599.523438 913.277344 599.402344 913.523438 599.402344 C 913.523438 599.402344 913.644531 599.402344 913.644531 599.402344 C 934.394531 599.402344 957.101562 597.449219 981.027344 592.199219 Z M 1074.53125 541.542969 C 1032.296875 568.152344 990.304688 580.847656 952.460938 585.609375 C 980.660156 571.691406 1006.417969 550.332031 1023.628906 525.429688 C 1051.214844 485.632812 1068.429688 471.472656 1116.035156 465.859375 C 1142.035156 462.808594 1162.054688 454.628906 1176.339844 446.449219 C 1154.730469 476.601562 1122.261719 511.390625 1074.53125 541.542969 Z M 1194.28125 418.738281 C 1189.765625 423.5 1163.765625 448.769531 1114.691406 454.628906 C 1063.058594 460.730469 1043.527344 476.84375 1014.230469 518.960938 C 986.03125 559.609375 941.964844 581.457031 911.8125 588.050781 C 873.726562 587.929688 842.84375 580.847656 824.777344 575.476562 C 826.609375 574.867188 828.5625 574.378906 830.394531 573.769531 C 856.148438 573.769531 880.6875 569.007812 904.367188 560.949219 C 928.414062 552.773438 951.363281 541.175781 971.382812 525.671875 C 976.753906 522.253906 981.148438 517.738281 986.03125 513.710938 C 990.792969 509.558594 995.675781 505.53125 999.703125 500.648438 L 1012.519531 486.734375 C 1016.425781 481.851562 1019.96875 476.601562 1023.75 471.597656 L 1029.367188 464.027344 C 1031.199219 461.464844 1032.539062 458.65625 1034.25 455.972656 L 1043.648438 439.734375 C 1049.507812 428.628906 1054.023438 416.910156 1059.273438 405.679688 C 1053.65625 416.785156 1048.652344 428.261719 1042.429688 439.125 L 1032.417969 454.871094 C 1030.710938 457.4375 1029.246094 460.242188 1027.292969 462.683594 L 1021.433594 470.007812 C 1017.527344 474.890625 1013.742188 479.773438 1009.835938 484.535156 L 996.773438 497.71875 C 992.625 502.359375 987.617188 506.019531 982.859375 509.925781 C 977.976562 513.710938 973.457031 517.984375 968.085938 521.15625 C 947.945312 535.4375 925.242188 545.816406 901.804688 552.894531 C 888.742188 556.800781 875.070312 559.609375 861.519531 561.195312 C 924.628906 531.167969 974.558594 479.773438 992.257812 426.796875 C 995.1875 418.128906 997.261719 409.097656 998.847656 399.941406 C 1031.074219 368.8125 1078.925781 360.390625 1133.613281 376.382812 C 1169.746094 386.878906 1197.578125 384.925781 1211.859375 382.484375 C 1208.808594 390.542969 1203.316406 403.238281 1194.28125 418.738281 Z M 1194.28125 418.738281 " fill-opacity="1" fill-rule="nonzero"/></g></svg>