<?xml version="1.0" standalone="no"?>
<!DOCTYPE svg PUBLIC "-//W3C//DTD SVG 1.1//EN" "http://www.w3.org/Graphics/SVG/1.1/DTD/svg11.dtd">
<svg xmlns="http://www.w3.org/2000/svg" xmlns:xlink="http://www.w3.org/1999/xlink" width="500" zoomAndPan="magnify" viewBox="0 0 375 374.999991" height="500" preserveAspectRatio="xMidYMid meet" version="1.0"><defs><g/><clipPath id="fcbc0b71b9"><path d="M 171.25 238 L 334 238 L 334 266 L 171.25 266 Z M 171.25 238 " clip-rule="nonzero"/></clipPath><clipPath id="041f5e589c"><path d="M 190 180.832031 L 322 180.832031 L 322 281 L 190 281 Z M 190 180.832031 " clip-rule="nonzero"/></clipPath><clipPath id="47df58d433"><path d="M 191 183.09375 L 350.992188 183.09375 L 350.992188 316.457031 L 191 316.457031 Z M 191 183.09375 " clip-rule="nonzero"/></clipPath></defs><g clip-path="url(#fcbc0b71b9)"><path fill="#c83a3a" d="M 243.929688 239.550781 L 234.800781 238.605469 L 218.160156 246.984375 L 222.042969 245.851562 Z M 187.742188 256.910156 L 171.324219 262.910156 L 173.550781 264.832031 L 188.648438 257.699219 L 188.949219 257.625 L 194.15625 256.984375 L 192.421875 256.492188 Z M 198.949219 255.777344 L 188.761719 252.605469 L 171.324219 251.738281 L 172.648438 254.378906 L 189.289062 253.664062 L 189.589844 253.664062 L 195.78125 255.4375 L 198.496094 256.230469 Z M 248.386719 240.417969 L 239.328125 245.210938 L 248.269531 256.039062 L 253.554688 252.152344 L 248.914062 241.546875 Z M 333.898438 265.511719 L 323.40625 262.378906 L 319.898438 265.246094 Z M 254.082031 248.757812 L 255.441406 251.851562 L 263.742188 256.910156 L 262.199219 249.511719 L 261.027344 243.8125 L 250.5 240.683594 Z M 232.6875 249.472656 L 242.308594 259.585938 L 235.328125 263.664062 L 221.589844 257.285156 L 232.6875 249.472656 " fill-opacity="1" fill-rule="nonzero"/></g><g clip-path="url(#041f5e589c)"><path fill="#fbbc05" d="M 301.367188 180.832031 L 248.949219 218.679688 L 298.914062 191.167969 Z M 199.589844 257.964844 L 190.761719 268.570312 L 200.988281 274.605469 L 199.777344 257.699219 Z M 201.589844 256.605469 L 202.269531 265.925781 L 202.722656 272.003906 L 207.816406 258.417969 Z M 271.179688 260.757812 L 268.386719 245.964844 L 321.21875 261.738281 L 297.859375 280.832031 L 281.179688 268.984375 L 275.707031 264.378906 L 271.179688 260.757812 " fill-opacity="1" fill-rule="nonzero"/></g><g clip-path="url(#47df58d433)"><path fill="#4285f4" d="M 256.761719 235.550781 L 339.859375 208.679688 L 351.40625 204.566406 L 346.238281 183.207031 Z M 302.988281 222.605469 L 259.101562 236.792969 L 341.59375 225.738281 L 339.371094 210.832031 Z M 300.046875 192.679688 L 237.441406 227.171875 L 248.949219 237.964844 L 341.332031 183.886719 Z M 194.949219 280.644531 L 200.382812 276.457031 L 191.214844 271.023438 Z M 236.574219 228.945312 L 235.628906 236.832031 L 246.121094 237.925781 Z M 277.21875 268.078125 L 286.914062 294.269531 L 287.480469 292.871094 L 287.632812 292.492188 L 279.820312 270.230469 Z M 293.667969 311.515625 L 278.992188 302.078125 L 276.347656 303.964844 Z M 289.140625 293.777344 L 288.160156 296.230469 L 301.027344 298.871094 Z M 266.046875 258.605469 L 275.140625 302.53125 L 277.667969 300.71875 L 277.933594 300.53125 L 269.367188 261.472656 L 266.308594 245.359375 L 263.066406 244.378906 L 265.253906 254.910156 Z M 213.328125 299.511719 L 216.382812 304.382812 L 216.082031 299.324219 Z M 205.175781 288.644531 L 205.402344 288.71875 L 207.0625 289.398438 L 228.726562 275.625 L 229.214844 269.890625 L 224.007812 273.324219 Z M 203.289062 275.8125 L 207.214844 277.4375 L 214.949219 270.265625 L 214.949219 266.34375 L 209.367188 259.625 Z M 203.402344 296.832031 L 205.855469 290.984375 L 204.117188 290.269531 Z M 214.308594 297.550781 L 216.609375 297.398438 L 246.460938 273.8125 L 241.101562 273.8125 Z M 255.667969 305.476562 L 258.308594 304.871094 L 258.648438 304.796875 L 260.121094 274.003906 L 256.839844 274.492188 Z M 237.101562 245.511719 C 236.773438 245.105469 236.835938 244.511719 237.238281 244.183594 C 237.289062 244.144531 237.34375 244.109375 237.40625 244.078125 L 240.269531 242.570312 L 209.628906 251.398438 L 209.96875 257.363281 L 216.460938 265.210938 L 216.570312 265.324219 L 223.515625 271.398438 L 229.742188 267.25 L 229.96875 267.132812 L 230.648438 267.132812 L 240.988281 271.964844 L 245.742188 271.964844 L 234.914062 265.589844 L 219.289062 258.339844 C 218.816406 258.121094 218.613281 257.5625 218.832031 257.089844 C 218.902344 256.941406 219.007812 256.8125 219.136719 256.71875 L 232.234375 247.511719 L 232.386719 247.4375 L 233.175781 247.4375 L 233.289062 247.511719 L 233.328125 247.511719 L 233.480469 247.625 L 244.496094 259.210938 L 244.535156 259.210938 L 256.308594 272.683594 L 258.875 272.304688 L 259.328125 272.230469 L 247.367188 257.964844 Z M 258.800781 306.722656 L 260.648438 316.457031 L 256.085938 307.324219 L 258.421875 306.796875 L 258.800781 306.722656 " fill-opacity="1" fill-rule="nonzero"/></g><g fill="#4285f4" fill-opacity="1"><g transform="translate(23.533688, 353.557324)"><g><path d="M 0.910156 0 L 7.929688 0 C 13.121094 0 17.328125 -4.070312 17.328125 -9.261719 L 17.328125 -40.621094 L 20.558594 -40.972656 L 20.558594 -49.113281 L 4.699219 -49.113281 L 4.699219 -40.972656 L 7.929688 -40.621094 L 7.929688 -11.648438 C 7.929688 -9.753906 6.3125 -8.136719 4.421875 -8.136719 L 0.910156 -8.136719 Z M 0.910156 0 "/></g></g></g><g fill="#4285f4" fill-opacity="1"><g transform="translate(45.698592, 353.557324)"><g><path d="M 4.210938 -47.5 C 4.210938 -44.691406 6.523438 -42.304688 9.332031 -42.304688 C 12.136719 -42.304688 14.453125 -44.691406 14.453125 -47.5 C 14.453125 -50.304688 12.136719 -52.550781 9.332031 -52.550781 C 6.523438 -52.550781 4.210938 -50.304688 4.210938 -47.5 Z M 9.613281 -35.078125 L 1.894531 -35.078125 L 1.894531 -27.855469 L 5.121094 -27.503906 L 5.121094 -7.578125 L 1.894531 -7.226562 L 1.894531 0 L 16.839844 0 L 16.839844 -7.226562 L 13.539062 -7.578125 L 13.539062 -35.078125 Z M 9.613281 -35.078125 "/></g></g></g><g fill="#4285f4" fill-opacity="1"><g transform="translate(63.514688, 353.557324)"><g><path d="M 1.683594 -27.855469 L 4.839844 -27.503906 L 4.839844 -7.578125 L 1.683594 -7.226562 L 1.683594 0 L 16.558594 0 L 16.558594 -7.226562 L 13.261719 -7.578125 L 13.261719 -27.855469 L 20.136719 -27.855469 L 20.695312 -24.066406 L 26.871094 -24.066406 L 26.871094 -35.078125 L 1.683594 -35.078125 Z M 1.683594 -27.855469 "/></g></g></g><g fill="#4285f4" fill-opacity="1"><g transform="translate(91.431255, 353.557324)"><g><path d="M 20.90625 -35.078125 L 5.332031 -35.078125 L 5.332031 -24.90625 L 11.4375 -24.90625 L 11.996094 -28.484375 L 18.03125 -28.484375 C 20.347656 -28.484375 22.101562 -26.660156 22.101562 -24.34375 L 22.101562 -21.820312 L 11.925781 -21.820312 C 6.734375 -21.820312 2.105469 -18.382812 2.105469 -10.945312 C 2.105469 -3.507812 6.734375 0 11.925781 0 L 33.816406 0 L 33.816406 -7.226562 L 30.519531 -7.578125 L 30.519531 -25.46875 C 30.519531 -30.800781 26.238281 -35.078125 20.90625 -35.078125 Z M 22.101562 -6.59375 L 14.804688 -6.59375 C 12.628906 -6.59375 10.523438 -7.859375 10.523438 -11.226562 C 10.523438 -14.523438 12.488281 -15.785156 14.804688 -15.785156 L 22.101562 -15.785156 Z M 22.101562 -6.59375 "/></g></g></g><g fill="#4285f4" fill-opacity="1"><g transform="translate(126.081454, 353.557324)"><g><path d="M 1.121094 -27.855469 L 4.28125 -27.503906 L 4.28125 7.015625 L 1.121094 7.4375 L 1.121094 14.03125 L 15.996094 14.03125 L 15.996094 7.4375 L 12.699219 7.015625 L 12.699219 0 L 18.804688 0 C 26.097656 0 32.765625 -5.332031 32.765625 -17.539062 C 32.765625 -29.746094 26.097656 -35.078125 18.804688 -35.078125 L 1.121094 -35.078125 Z M 12.699219 -7.226562 L 12.699219 -27.855469 L 16.980469 -27.855469 C 20.835938 -27.855469 24.414062 -25.328125 24.414062 -17.539062 C 24.414062 -9.824219 20.976562 -7.226562 16.980469 -7.226562 Z M 12.699219 -7.226562 "/></g></g></g><g fill="#4285f4" fill-opacity="1"><g transform="translate(161.292805, 353.557324)"><g><path d="M 1.121094 -45.464844 L 4.28125 -45.113281 L 4.28125 -7.578125 L 1.121094 -7.226562 L 1.121094 0 L 15.996094 0 L 15.996094 -7.226562 L 12.699219 -7.578125 L 12.699219 -27.855469 L 18.941406 -27.855469 C 21.257812 -27.855469 23.152344 -26.097656 23.152344 -23.785156 L 23.152344 0 L 34.800781 0 L 34.800781 -7.226562 L 31.5 -7.578125 L 31.5 -25.46875 C 31.5 -30.800781 27.222656 -35.078125 21.890625 -35.078125 L 12.699219 -35.078125 L 12.699219 -52.621094 L 1.121094 -52.621094 Z M 1.121094 -45.464844 "/></g></g></g><g fill="#4285f4" fill-opacity="1"><g transform="translate(197.065285, 353.557324)"><g><path d="M 4.210938 -47.5 C 4.210938 -44.691406 6.523438 -42.304688 9.332031 -42.304688 C 12.136719 -42.304688 14.453125 -44.691406 14.453125 -47.5 C 14.453125 -50.304688 12.136719 -52.550781 9.332031 -52.550781 C 6.523438 -52.550781 4.210938 -50.304688 4.210938 -47.5 Z M 9.613281 -35.078125 L 1.894531 -35.078125 L 1.894531 -27.855469 L 5.121094 -27.503906 L 5.121094 -7.578125 L 1.894531 -7.226562 L 1.894531 0 L 16.839844 0 L 16.839844 -7.226562 L 13.539062 -7.578125 L 13.539062 -35.078125 Z M 9.613281 -35.078125 "/></g></g></g><g fill="#4285f4" fill-opacity="1"><g transform="translate(214.881381, 353.557324)"><g><path d="M 1.894531 -27.855469 L 5.191406 -27.503906 L 5.191406 -7.578125 L 1.894531 -7.226562 L 1.894531 0 L 16.839844 0 L 16.839844 -7.226562 L 13.539062 -7.578125 L 13.539062 -27.855469 L 19.855469 -27.855469 C 22.171875 -27.855469 23.925781 -26.097656 23.925781 -23.785156 L 23.925781 0 L 35.640625 0 L 35.640625 -7.226562 L 32.414062 -7.578125 L 32.414062 -25.46875 C 32.414062 -30.800781 28.0625 -35.078125 22.730469 -35.078125 L 1.894531 -35.078125 Z M 1.894531 -27.855469 "/></g></g></g><g fill="#4285f4" fill-opacity="1"><g transform="translate(251.495564, 353.557324)"><g><path d="M 1.121094 -27.855469 L 4.351562 -27.503906 L 4.351562 -10.242188 C 4.351562 -4.628906 8.910156 0 14.523438 0 L 23.152344 0 L 23.152344 4 C 23.152344 6.59375 21.117188 8.558594 18.523438 8.558594 L 13.609375 8.558594 L 12.980469 4.839844 L 6.246094 4.839844 L 6.246094 15.15625 L 21.890625 15.15625 C 27.222656 15.15625 31.570312 10.875 31.570312 5.542969 L 31.570312 -27.503906 L 34.800781 -27.855469 L 34.800781 -35.078125 L 19.785156 -35.078125 L 19.785156 -27.855469 L 23.152344 -27.503906 L 23.152344 -7.226562 L 17.117188 -7.226562 C 14.734375 -7.226562 12.699219 -9.121094 12.699219 -11.507812 L 12.699219 -35.078125 L 1.121094 -35.078125 Z M 1.121094 -27.855469 "/></g></g></g><g fill="#4285f4" fill-opacity="1"><g transform="translate(287.268044, 353.557324)"><g><path d="M 20.90625 -35.078125 L 5.332031 -35.078125 L 5.332031 -24.90625 L 11.4375 -24.90625 L 11.996094 -28.484375 L 18.03125 -28.484375 C 20.347656 -28.484375 22.101562 -26.660156 22.101562 -24.34375 L 22.101562 -21.820312 L 11.925781 -21.820312 C 6.734375 -21.820312 2.105469 -18.382812 2.105469 -10.945312 C 2.105469 -3.507812 6.734375 0 11.925781 0 L 33.816406 0 L 33.816406 -7.226562 L 30.519531 -7.578125 L 30.519531 -25.46875 C 30.519531 -30.800781 26.238281 -35.078125 20.90625 -35.078125 Z M 22.101562 -6.59375 L 14.804688 -6.59375 C 12.628906 -6.59375 10.523438 -7.859375 10.523438 -11.226562 C 10.523438 -14.523438 12.488281 -15.785156 14.804688 -15.785156 L 22.101562 -15.785156 Z M 22.101562 -6.59375 "/></g></g></g></svg>
