<svg xmlns="http://www.w3.org/2000/svg" xmlns:xlink="http://www.w3.org/1999/xlink" width="500" zoomAndPan="magnify" viewBox="0 0 375 374.999991" height="500" preserveAspectRatio="xMidYMid meet" version="1.0"><defs><clipPath id="48c763b097"><path d="M 12 79.042969 L 153 79.042969 L 153 267 L 12 267 Z M 12 79.042969 " clip-rule="nonzero"/></clipPath><clipPath id="4b2d7f35c3"><path d="M 135.820312 85.804688 L 362.863281 85.804688 L 362.863281 295.792969 L 135.820312 295.792969 Z M 135.820312 85.804688 " clip-rule="nonzero"/></clipPath></defs><g clip-path="url(#48c763b097)"><path fill="#43b14b" d="M 152.171875 134.898438 C 144.996094 118.046875 130.1875 103.648438 118.121094 96.625 C 119.417969 100.082031 119.84375 109.230469 118.160156 113.667969 C 103.878906 95.84375 81.792969 85.613281 63.203125 81.726562 C 65.828125 86.984375 67.855469 92.367188 68.5625 98.027344 C 60.085938 88.828125 42.417969 80.753906 28.457031 79.046875 C 24.957031 92.664062 26.03125 112.0625 31.507812 123.308594 C 26.492188 120.585938 22.21875 116.734375 18.285156 112.371094 C 15.121094 131.097656 16.589844 155.394531 27.976562 175.195312 C 23.230469 175.144531 14.871094 171.410156 12.121094 168.941406 C 15.054688 187.875 29.039062 216.679688 51.996094 225.757812 C 44.515625 229.113281 37.894531 229.1875 31.964844 228.363281 C 77.007812 290.300781 115.40625 259.625 145.175781 257.203125 C 140.175781 234.726562 127.578125 219.78125 110.859375 204.070312 C 92.292969 186.621094 63.320312 154.636719 59.492188 130.527344 C 66.109375 149.871094 81.191406 166.617188 95.765625 180.492188 C 109.792969 193.847656 126.339844 206.097656 138.574219 220.871094 C 131.308594 195.871094 125.699219 167.335938 152.171875 134.898438 " fill-opacity="1" fill-rule="evenodd"/></g><g clip-path="url(#4b2d7f35c3)"><path fill="#43b14b" d="M 154.808594 258.949219 C 188.195312 273.714844 219.585938 325.578125 297.265625 272.734375 C 290.109375 271.238281 282.535156 268.421875 275.324219 261.480469 C 305.441406 260.519531 333.386719 233.195312 344.566406 212.65625 C 340.390625 214.359375 329.246094 215.199219 323.773438 213.300781 C 345.019531 195.253906 356.722656 167.945312 360.816406 145.128906 C 354.492188 148.515625 347.996094 151.175781 341.117188 152.238281 C 352.042969 141.574219 361.277344 119.738281 362.871094 102.644531 C 346.128906 98.847656 322.503906 100.839844 308.972656 107.914062 C 312.121094 101.703125 316.667969 96.351562 321.851562 91.398438 C 298.890625 88.199219 269.300781 90.835938 245.542969 105.425781 C 245.4375 99.632812 249.703125 89.300781 252.617188 85.863281 C 229.621094 90.105469 194.964844 108.175781 184.695312 136.503906 C 180.339844 127.496094 180.011719 119.417969 180.816406 112.15625 C 113.257812 164.3125 139.707031 207.007812 147.859375 241.625 C 159.730469 227.546875 174.003906 218.25 189.65625 210.214844 C 204.234375 202.734375 219.203125 196.457031 233.871094 189.359375 C 257.363281 177.992188 296.789062 154.429688 309.78125 133.390625 C 301.902344 152.039062 274.15625 172.933594 251.082031 187.640625 C 238.695312 195.535156 226.125 202.183594 213.238281 209.160156 C 189.925781 221.785156 167.863281 235.046875 154.808594 258.949219 " fill-opacity="1" fill-rule="evenodd"/></g></svg>